<svg xmlns="http://www.w3.org/2000/svg" viewBox="0 0 1950.19 204.9"><defs><style>.cls-1{fill:#21a46a;}</style></defs><g id="Layer_2" data-name="Layer 2"><g id="Layer_1-2" data-name="Layer 1"><path class="cls-1" d="M122.17,170.87c1.11-6,2-11.92,3.31-17.76,7.49-34.87,22.18-66.06,47.77-91.43A142.72,142.72,0,0,1,248.18,22c26.32-5,51.79-1.64,76.28,9.21q1.4.61,2.82,1.17a8.31,8.31,0,0,0,1.38.18V1.89h32.68V201.5H328.79V105.81l-1-.16c-.51.95-1,1.89-1.54,2.84-16.87,32.7-41,58.56-73,76.77a150.86,150.86,0,0,1-56.45,18.38,164.5,164.5,0,0,1-63.16-4.46,10,10,0,0,0-4.74,0,115.48,115.48,0,0,1-28.09,3.2,98.94,98.94,0,0,1-57.11-18.57C21.29,168,6.45,146.77,1.69,119.61-4,87,4.75,58.11,27.42,33.81A100.63,100.63,0,0,1,80.08,3.56c24.42-5.43,47.9-2,70.32,8.81,6.1,2.94,11.87,6.58,18,10-4.5,3.13-8.61,5.7-12.39,8.69s-7.31,6.46-10.94,9.71l.54.82c-.8-.38-1.61-.75-2.41-1.14C122,30.31,99.93,27.08,77.63,35.66c-24.4,9.39-39,28-43.46,53.61s3,48.18,22.2,66.13c11.53,10.76,25.42,16.5,41.29,17.46a99.46,99.46,0,0,0,22.15-1.34A24,24,0,0,0,122.17,170.87ZM317.31,57.42A22.88,22.88,0,0,0,315.05,56c-20.11-9-41-12.32-62.75-7.83-30.11,6.21-54.05,22.3-72.72,46.44-14.08,18.2-22.38,39.06-27.55,61.29-.42,1.79-.71,3.61-1.17,6,1.63-.81,2.63-1.27,3.59-1.81,21.05-11.81,39.32-27.25,56.3-44.17,12.25-12.2,23.94-25,35.33-38,5.39-6.17,17.52-5.66,21.75,2,2.79,5.06,2,11.26-2.61,16.65-25.73,30.18-53.76,57.88-86.77,80.2a12.13,12.13,0,0,0-1.51,1.45l.34.76c4.94-.42,9.88-.76,14.81-1.28a118.49,118.49,0,0,0,43.51-13.23c34.58-18.43,59.24-45.94,73.66-82.41C312.42,74.06,314.63,65.7,317.31,57.42Z"/><path class="cls-1" d="M392.08,201.57V1.91h35.15V37.76l.83.09a12.29,12.29,0,0,0,1-1.07C443.79,16.26,463.82,4.29,488.74,1,514.24-2.4,537,4,556,21.94a75.58,75.58,0,0,1,23.24,45,113.62,113.62,0,0,1,1.14,16.39q.13,57.43,0,114.86v3.35H544.76v-3.77c0-37.68-.33-75.36.11-113a52.78,52.78,0,0,0-40-51.86c-21.07-5.09-40.7-2.27-57.83,11.67C434.07,55,427.24,68.78,427.24,85.67q0,55.74,0,111.5c0,1.39-.13,2.79-.21,4.4Z"/><path class="cls-1" d="M759.23,201.56V85.23c0-26.83-17.09-47.93-43.4-53.2-18.34-3.68-35.73-1.21-51.18,9.9-15.09,10.84-23.13,25.53-23.08,44.42.08,37,0,73.93,0,110.89v4.25h-35V1.87h35V37.64l1.13.6a10.51,10.51,0,0,1,.74-1.63C656.6,18,674.61,6.54,696.65,2,720.52-2.86,743.07.87,763,15.78c17.53,13.16,27.64,30.87,30.78,52.52a75.51,75.51,0,0,1,.75,10.94q.07,59.1,0,118.22c0,1.29-.12,2.59-.2,4.1Z"/><path d="M1540.65,198.64V84.71c0-26.28-16.74-46.94-42.5-52.1-18-3.6-35-1.19-50.13,9.69-14.77,10.62-22.64,25-22.6,43.51.09,36.2,0,72.4,0,108.6v4.16h-34.27V3.07h34.28v35l1.12.58a8.88,8.88,0,0,1,.72-1.6c12.85-18.22,30.48-29.44,52.07-33.86,23.37-4.79,45.46-1.14,64.93,13.47,17.18,12.88,27.07,30.22,30.15,51.43a73.75,73.75,0,0,1,.73,10.71q.08,57.89,0,115.78c0,1.27-.12,2.53-.2,4Z"/><path d="M1630.58,3.38V117.31c0,26.27,16.74,46.94,42.5,52.1,18,3.6,35,1.18,50.13-9.7,14.77-10.62,22.65-25,22.6-43.5-.08-36.2,0-72.4,0-108.6V3.45h34.27V198.94h-34.29v-35l-1.11-.59a8.61,8.61,0,0,1-.73,1.6c-12.84,18.22-30.48,29.45-52.07,33.87-23.37,4.79-45.46,1.13-64.93-13.48-17.17-12.88-27.07-30.22-30.15-51.43a76.58,76.58,0,0,1-.73-10.71Q1596,65.29,1596,7.4c0-1.27.12-2.54.19-4Z"/><path d="M1119,20.93C1104.8,7.41,1087.22.85,1065.3.85c-24.71,0-45.44,11.75-53.29,19.61a94.9,94.9,0,0,0-10.65,13.94l-1.49,2.41-1.48-2.41C985.3,13.07,962.81.85,936.7.85c-25.88,0-44.84,9.41-58,28.76l-3.19,4.69V3.07H840.14v195.7h35.39V82.45c0-13.89,4.84-25.39,14.36-34.14,9.78-9.4,21.42-14,35.59-14,26.56,0,47.35,21,47.35,47.72v116.7h35.39V82.45c0-13.77,4.71-25.24,14-34.14,9.77-9.4,21.42-14,35.61-14,26.56,0,47.35,21,47.35,47.72v116.7h35.39V71.25C1140.56,51.4,1133.3,34.47,1119,20.93Z"/><path d="M1140.56,71.25V198.77h-35.39V82.07c0-26.75-20.79-47.72-47.35-47.72-14.19,0-25.84,4.56-35.61,14-9.28,8.9-14,20.37-14,34.14V198.77H972.83V82.07c0-26.75-20.79-47.72-47.35-47.72-14.17,0-25.81,4.56-35.59,14-9.52,8.75-14.36,20.25-14.36,34.14V198.77H840.14V3.07h35.39V34.3l3.19-4.69C891.86,10.26,910.82.85,936.7.85c26.11,0,48.6,12.22,61.69,33.55l1.48,2.41,1.49-2.41A94.9,94.9,0,0,1,1012,20.46C1019.86,12.6,1040.59.85,1065.3.85c21.92,0,39.5,6.56,53.74,20.08S1140.56,51.4,1140.56,71.25Z"/><path d="M1338,29.48c-18.63-19-42.37-28.63-70.52-28.63-28.31,0-52.27,9.63-71.28,28.63C1177.47,48.61,1168,72.72,1168,101.15s9.87,52.52,29.37,71.65,44,28.65,73.17,28.65c36.58,0,69-17.23,87-46.21l-34.83-10.57c-12.67,15.93-30.23,24-52.22,24-33.22,0-59.75-21.29-66-53l-.42-2.09h162l.17-3.15c.25-4,.45-7.18.45-9.3C1366.69,72.6,1357.06,48.48,1338,29.48ZM1204.35,86.06l.55-2.14c7.3-29.62,32.59-50.3,61.49-50.3,30.7,0,56.34,20.2,63.74,50.3l.55,2.14Z"/><path d="M1338,29.48c-18.63-19-42.37-28.63-70.52-28.63-28.31,0-52.27,9.63-71.28,28.63C1177.47,48.61,1168,72.72,1168,101.15s9.87,52.52,29.37,71.65,44,28.65,73.17,28.65c36.58,0,69-17.23,87-46.21l-34.83-10.57c-12.67,15.93-30.23,24-52.22,24-33.22,0-59.75-21.29-66-53l-.42-2.09h162l.17-3.15c.25-4,.45-7.18.45-9.3C1366.69,72.6,1357.06,48.48,1338,29.48ZM1204.35,86.06l.55-2.14c7.3-29.62,32.59-50.3,61.49-50.3,30.7,0,56.34,20.2,63.74,50.3l.55,2.14Z"/><path d="M1903.54,90.08l-43.77-15c-13.17-4.79-19.85-11.87-19.85-21.07,0-13.57,13.62-22.67,33.89-22.67,19.73,0,34.26,8,39.3,21.44L1946.53,47c-6.24-29-32.15-46.19-69.73-46.19C1832.49.85,1806,21.85,1806,57c0,24.79,12.62,39.72,42.17,49.92l43.39,14.59c16.41,5.86,24.71,14,24.71,24.09,0,15.11-15.41,25.29-38.37,25.29-22.67,0-39.18-9.75-43.54-25.56l-33.3,5.08c6.26,32,34.57,51,76.09,51,45,0,73-21.82,73-56.93C1950.19,118.83,1935.78,102.05,1903.54,90.08Z"/><path d="M1950.19,144.52c0,35.11-28,56.93-73,56.93-41.52,0-69.83-19-76.09-51l33.3-5.08c4.36,15.81,20.87,25.56,43.54,25.56,23,0,38.37-10.18,38.37-25.29,0-10.12-8.3-18.23-24.71-24.09L1848.2,107C1818.65,96.76,1806,81.83,1806,57,1806,21.85,1832.49.85,1876.8.85c37.58,0,63.49,17.21,69.73,46.19l-33.42,5.78c-5-13.46-19.57-21.44-39.3-21.44-20.27,0-33.89,9.1-33.89,22.67,0,9.2,6.68,16.28,19.85,21.07l43.77,15C1935.78,102.05,1950.19,118.83,1950.19,144.52Z"/></g></g></svg>