<?xml version="1.0" standalone="no"?>
<!DOCTYPE svg PUBLIC "-//W3C//DTD SVG 20010904//EN"
 "http://www.w3.org/TR/2001/REC-SVG-20010904/DTD/svg10.dtd">
<svg version="1.0" xmlns="http://www.w3.org/2000/svg"
 width="1024.000000pt" height="1024.000000pt" viewBox="0 0 1024.000000 1024.000000"
 preserveAspectRatio="xMidYMid meet">
<metadata>
Created by potrace 1.14, written by Peter Selinger 2001-2017
</metadata>
<g transform="translate(0.000000,1024.000000) scale(0.100000,-0.100000)"
fill="#000000" stroke="none">
<path d="M4899 9167 c-57 -29 -156 -83 -219 -118 -63 -36 -213 -118 -332 -183
-120 -65 -218 -120 -218 -122 0 -5 94 40 124 60 l27 17 -7 -27 c-6 -23 -4 -26
10 -21 9 4 16 2 16 -3 0 -6 -9 -10 -20 -10 -12 0 -32 -11 -46 -25 -14 -14 -29
-25 -33 -25 -5 0 -12 -7 -15 -16 -4 -11 -14 -15 -31 -11 -18 3 -29 -1 -35 -14
-13 -24 -12 -32 3 -23 6 4 1 -5 -12 -19 -14 -15 -33 -27 -43 -27 -22 0 -88
-50 -88 -66 0 -6 -18 -24 -40 -39 -22 -15 -51 -43 -66 -62 -36 -47 -20 -62 35
-34 22 12 41 19 41 17 0 -2 -53 -32 -117 -66 -65 -35 -162 -87 -216 -117 -53
-30 -102 -51 -109 -47 -6 4 -8 3 -5 -2 3 -6 -110 -72 -251 -149 -552 -298
-559 -302 -615 -410 l-32 -60 -3 -1351 c-1 -844 1 -1360 7 -1375 6 -14 10 -17
10 -9 1 9 33 33 74 55 39 21 75 43 79 49 4 6 8 40 8 75 0 61 2 66 38 100 21
20 83 60 138 89 54 29 90 51 78 47 -16 -4 -20 -1 -19 15 1 11 5 23 10 27 4 5
5 2 1 -4 -5 -9 0 -13 13 -13 20 0 21 5 21 124 l0 125 39 33 c22 18 84 58 138
89 l98 57 3 57 3 56 -30 -15 c-38 -20 -41 -20 -41 1 0 9 3 13 7 10 3 -4 13 2
21 14 8 11 20 18 28 15 8 -3 14 -2 15 2 4 32 6 92 3 92 -1 0 -26 -13 -54 -30
-55 -32 -74 -37 -67 -17 2 6 10 11 16 10 6 -2 11 2 11 7 0 6 7 10 16 10 8 0
12 5 8 11 -4 8 0 9 15 4 15 -4 19 -3 16 7 -4 9 2 14 16 15 12 1 43 13 68 26
151 78 197 103 209 115 7 6 20 12 28 12 8 0 14 7 14 15 0 9 6 12 15 9 9 -4 15
0 15 10 0 9 5 16 11 16 5 0 7 -4 4 -10 -8 -14 -3 -13 33 6 17 8 39 25 49 38
29 36 94 76 388 236 154 85 399 221 545 304 366 207 331 191 430 191 97 -1
105 -4 313 -129 67 -40 138 -81 157 -91 33 -16 109 -60 315 -180 50 -29 117
-67 150 -85 263 -142 381 -218 396 -255 2 -5 38 -27 79 -49 159 -82 321 -179
336 -201 14 -21 14 -27 0 -53 -19 -37 -78 -73 -411 -257 -137 -76 -331 -183
-430 -240 -99 -56 -274 -155 -390 -220 -115 -65 -247 -140 -293 -168 -46 -28
-104 -56 -130 -63 -47 -13 -47 -13 -12 -14 19 -1 29 -4 22 -7 -18 -7 -4 -23
16 -17 13 5 14 4 3 -4 -8 -6 -11 -18 -7 -30 4 -12 -1 -33 -14 -54 -11 -18 -20
-45 -20 -60 0 -36 29 -37 89 -3 24 14 39 19 33 12 -29 -34 -127 -70 -203 -75
-94 -5 -98 -4 -409 173 -581 330 -1202 675 -1215 675 -24 -1 89 -88 166 -129
46 -24 91 -49 99 -56 15 -12 54 -34 179 -102 36 -20 94 -53 129 -75 36 -22 75
-44 86 -49 12 -5 28 -13 36 -19 8 -5 80 -46 160 -91 298 -166 349 -195 500
-288 85 -52 189 -110 230 -130 68 -33 83 -36 160 -36 78 0 92 4 170 40 47 22
119 58 160 81 125 68 233 126 265 142 17 9 49 28 73 44 23 16 62 38 85 49 23
11 49 24 57 29 40 25 212 120 217 120 2 0 47 26 99 58 141 85 153 92 229 132
39 20 99 54 135 76 36 22 98 58 138 79 86 45 124 85 117 123 -2 16 -27 48 -57
77 -45 42 -52 54 -48 77 l5 28 112 -63 c146 -81 173 -104 173 -152 0 -51 -29
-77 -195 -169 -77 -44 -207 -116 -288 -162 -82 -46 -150 -84 -152 -84 -2 0
-43 -23 -92 -52 -94 -54 -104 -60 -428 -242 -115 -65 -336 -191 -490 -279
-154 -88 -298 -167 -320 -174 l-40 -13 41 4 42 4 -5 -42 c-7 -62 -20 -129 -28
-148 -11 -26 11 -22 74 12 68 38 80 39 21 2 -76 -48 -129 -64 -205 -64 -86 0
-101 6 -296 119 -84 49 -264 152 -399 228 -135 76 -330 186 -435 245 -218 124
-672 373 -697 382 -12 5 -15 3 -11 -8 3 -7 9 -14 13 -14 5 0 15 -6 22 -13 26
-26 135 -95 228 -145 52 -28 157 -87 234 -131 76 -45 140 -81 143 -81 2 0 37
-19 76 -42 40 -23 135 -76 212 -118 77 -42 174 -96 215 -120 166 -96 470 -276
551 -326 143 -89 182 -104 275 -104 112 0 180 23 429 148 80 40 128 65 214
111 14 8 28 17 31 21 3 4 34 22 70 40 36 19 72 39 80 46 8 7 40 25 70 40 30
15 57 30 60 34 3 4 23 16 45 27 96 48 190 97 195 102 6 7 42 28 88 52 18 10
38 22 45 27 18 15 309 172 318 172 5 0 9 4 9 9 0 5 8 11 18 14 32 11 271 162
301 192 59 56 49 117 -29 174 l-35 26 16 32 16 32 114 -64 c114 -65 169 -111
169 -142 0 -27 -80 -95 -181 -152 -52 -29 -215 -121 -364 -204 -148 -82 -319
-178 -380 -212 -183 -104 -407 -230 -460 -260 -27 -15 -147 -82 -265 -148
-118 -66 -276 -154 -350 -197 -166 -95 -212 -119 -264 -135 -32 -10 -35 -13
-16 -14 14 0 42 6 63 13 33 12 36 12 25 -1 -8 -10 -12 -44 -10 -100 1 -46 -2
-81 -7 -78 -5 2 -11 -2 -15 -10 -7 -20 -4 -19 54 10 73 37 61 22 -16 -21 -55
-31 -79 -38 -140 -42 -90 -6 -125 6 -273 93 -58 34 -167 95 -241 135 -74 40
-196 108 -271 151 -125 71 -519 292 -834 469 -262 147 -509 280 -520 280 -16
0 11 -22 88 -73 45 -30 101 -65 124 -78 292 -168 534 -304 643 -361 36 -19
133 -74 215 -122 83 -49 175 -102 205 -119 30 -16 96 -52 145 -80 205 -113
319 -179 535 -307 172 -102 185 -108 255 -116 100 -12 265 36 425 123 36 19
99 53 140 75 41 23 82 46 90 53 8 7 92 50 185 96 94 45 192 96 219 111 26 16
91 52 144 80 53 28 104 58 113 66 9 8 52 34 96 57 105 55 176 95 188 105 6 5
49 28 95 53 127 65 191 101 234 131 21 14 43 26 49 26 6 0 24 10 41 23 17 12
51 33 76 46 61 33 138 84 180 121 19 16 38 30 41 30 14 0 29 54 23 89 -7 41
-26 58 -88 76 l-38 11 25 16 c23 16 27 15 88 -23 35 -21 68 -39 73 -39 5 0 29
-16 53 -36 39 -32 44 -40 41 -73 -5 -55 -3 -54 -593 -381 -126 -70 -284 -158
-350 -195 -66 -37 -219 -123 -340 -190 -121 -67 -377 -212 -570 -320 -404
-229 -467 -265 -551 -311 -34 -19 -82 -39 -105 -43 l-44 -9 43 -1 c30 -1 41
-5 36 -13 -4 -7 -3 -8 5 -4 6 4 9 12 6 17 -4 5 -2 9 3 9 13 0 21 -71 11 -92
-5 -9 -9 -31 -9 -49 0 -18 -7 -41 -17 -51 -22 -24 -3 -23 50 3 31 17 38 18 29
6 -25 -29 -118 -57 -193 -57 -74 0 -91 6 -219 80 -102 59 -687 387 -875 490
-261 143 -573 318 -860 480 -276 157 -424 234 -432 227 -2 -3 9 -13 26 -23 17
-10 31 -21 31 -24 0 -11 133 -90 375 -225 127 -71 289 -162 360 -203 128 -74
152 -87 270 -152 33 -18 125 -70 205 -115 80 -45 177 -99 215 -120 39 -21 103
-58 142 -82 40 -24 75 -43 78 -43 3 0 30 -16 60 -35 30 -19 88 -51 127 -71 40
-20 151 -84 247 -141 258 -155 285 -167 363 -171 37 -3 96 1 132 7 62 11 205
69 236 96 15 13 202 113 510 272 362 188 406 211 445 239 17 11 64 38 105 58
41 21 82 44 90 51 8 7 31 21 50 30 19 10 37 21 40 24 3 3 32 20 65 36 33 17
76 39 95 51 19 12 77 43 128 70 128 68 142 76 198 111 27 17 83 47 124 68 41
20 101 54 132 76 32 21 62 39 68 39 5 0 10 4 10 9 0 5 14 14 31 21 17 7 53 35
81 61 49 46 51 50 46 93 -6 50 -46 107 -82 116 -20 5 -21 13 -24 113 l-2 107
52 33 c29 19 86 51 127 72 86 45 124 91 141 168 8 37 10 466 8 1512 l-3 1460
-23 55 c-21 51 -71 128 -56 87 4 -12 -2 -24 -17 -38 -38 -32 -113 -104 -126
-120 -9 -11 -8 -31 8 -89 18 -71 19 -117 18 -1419 -1 -740 -5 -1377 -9 -1416
-4 -38 -8 -54 -8 -35 -2 28 -12 43 -54 82 -29 26 -65 53 -80 60 -27 12 -36 30
-40 78 -1 14 -5 -11 -8 -55 -3 -44 -7 499 -8 1206 -1 872 -5 1304 -13 1345
-14 79 -59 171 -106 216 -21 20 -126 84 -237 143 -109 58 -208 112 -220 120
-11 7 -190 104 -396 215 -206 112 -571 309 -810 440 -587 321 -625 339 -712
355 -40 7 -65 14 -56 14 18 1 14 15 -27 75 -11 17 -18 38 -17 48 2 11 -3 18
-12 18 -10 0 -13 7 -11 21 3 14 0 19 -9 16 -25 -10 -27 7 -4 20 13 7 18 12 12
13 -7 0 -58 -24 -115 -53z m-399 -241 c0 -2 -7 -7 -16 -10 -8 -3 -12 -2 -9 4
6 10 25 14 25 6z m-40 -26 c0 -9 -7 -11 -26 -9 -3 0 -11 -7 -18 -16 -6 -9 -18
-17 -26 -18 -8 -2 -21 -6 -27 -10 -8 -5 -13 -4 -13 2 0 10 7 13 26 10 4 0 10
3 13 8 8 12 54 43 63 43 5 0 8 -4 8 -10z m-124 -96 c-5 -12 -9 -12 -26 -2
l-21 13 23 19 c21 17 23 17 26 2 2 -10 1 -24 -2 -32z m1044 -193 c120 -69 179
-101 188 -101 5 0 15 -7 22 -15 7 -8 16 -12 21 -9 5 3 9 0 9 -7 0 -7 3 -10 6
-6 4 3 13 -1 21 -9 8 -8 19 -12 24 -9 5 4 9 1 9 -5 0 -6 5 -8 10 -5 6 3 10 1
10 -5 0 -6 4 -9 8 -6 5 3 14 -4 22 -14 8 -10 17 -17 22 -14 4 3 8 0 8 -5 0 -6
6 -11 14 -11 8 0 22 -7 30 -16 9 -8 20 -12 26 -9 5 3 10 3 10 -2 0 -4 27 -21
61 -37 40 -19 59 -33 55 -42 -3 -7 -1 -16 4 -19 4 -3 10 0 12 6 4 13 58 -9 58
-23 0 -5 -4 -6 -10 -3 -5 3 -10 1 -10 -4 0 -17 -33 -12 -60 9 -14 11 -31 20
-37 20 -7 0 -13 4 -13 8 0 4 -13 16 -30 25 -16 10 -30 16 -30 13 0 -5 -50 25
-86 51 -13 10 -42 27 -112 65 -31 16 -68 38 -82 48 -14 9 -35 21 -47 24 -13 4
-23 11 -23 15 0 4 -16 13 -35 20 -19 7 -35 17 -35 22 0 6 -4 8 -8 5 -5 -3 -18
4 -30 14 -12 11 -26 20 -32 20 -5 0 -10 10 -10 23 0 12 4 18 8 12 4 -5 18 -16
32 -24z m-1080 -6 c0 -2 -18 -14 -40 -25 -22 -11 -40 -18 -40 -15 0 2 17 13
38 24 42 23 42 23 42 16z m-110 -60 c0 -2 -10 -9 -22 -15 -22 -11 -22 -10 -4
4 21 17 26 19 26 11z m-51 -29 c-10 -9 -69 -36 -69 -32 0 7 52 35 64 36 5 0 7
-2 5 -4z m1221 -17 c0 -5 -4 -9 -10 -9 -5 0 -10 7 -10 16 0 8 5 12 10 9 6 -3
10 -10 10 -16z m33 -5 c9 -9 -4 -35 -14 -28 -5 3 -9 12 -9 20 0 14 12 19 23 8z
m27 -29 c0 -8 -4 -15 -10 -15 -5 0 -10 7 -10 15 0 8 5 15 10 15 6 0 10 -7 10
-15z m-1380 0 c0 -2 -18 -14 -40 -25 -22 -11 -40 -18 -40 -15 0 2 17 13 38 24
42 23 42 23 42 16z m1403 -20 c-7 -21 -13 -19 -13 6 0 11 4 18 10 14 5 -3 7
-12 3 -20z m50 -11 c18 -9 34 -20 37 -23 3 -3 12 -6 20 -6 8 0 19 -10 25 -22
11 -26 28 -32 18 -6 -4 11 -3 14 5 9 7 -4 12 -15 12 -24 0 -14 2 -14 9 -3 7
11 11 9 21 -8 15 -29 9 -48 -10 -29 -8 7 -29 20 -47 27 -18 7 -31 18 -30 25 1
6 -6 10 -16 8 -9 -2 -17 1 -16 5 3 19 -2 27 -9 15 -6 -9 -13 -7 -29 7 -11 11
-24 17 -27 14 -3 -4 -6 1 -6 10 0 21 3 21 43 1z m-673 -7 c0 -9 -41 -50 -45
-45 -6 6 24 48 36 48 5 0 9 -2 9 -3z m-61 -41 c-14 -30 -29 -34 -29 -8 -1 12
-5 10 -15 -9 -16 -29 -41 -43 -57 -32 -7 3 -8 1 -4 -5 7 -12 -27 -35 -38 -25
-3 3 -6 2 -6 -4 0 -17 -46 -33 -59 -20 -6 6 -11 15 -11 21 0 5 3 6 7 3 3 -4
15 0 25 10 18 16 25 7 11 -13 -5 -5 2 2 14 16 13 14 23 19 23 13 0 -7 5 -13
11 -13 6 0 9 7 6 15 -8 20 11 29 29 14 12 -10 13 -9 8 7 -4 10 -4 16 0 12 4
-3 16 2 27 13 11 11 24 17 28 14 5 -2 14 2 21 10 18 22 23 12 9 -19z m601 3
c0 -5 4 -8 9 -5 5 3 11 -4 15 -17 5 -18 8 -20 16 -7 8 12 10 11 10 -8 l0 -22
-35 22 c-33 22 -47 48 -25 48 6 0 10 -5 10 -11z m-923 -66 c-3 -3 -11 -2 -17
2 -9 6 -9 10 1 16 14 8 27 -7 16 -18z m1008 17 c4 -6 11 -8 16 -5 5 4 9 -3 9
-13 0 -18 -3 -19 -25 -9 -14 7 -25 18 -25 25 0 15 16 16 25 2z m244 -9 c13
-11 20 -25 16 -30 -3 -6 -2 -11 4 -11 5 0 12 6 15 13 5 10 7 10 12 0 3 -7 12
-13 20 -13 9 0 12 -4 9 -10 -3 -6 1 -7 9 -4 9 3 16 1 16 -5 0 -6 7 -11 15 -11
8 0 15 -5 15 -12 0 -6 3 -9 6 -5 3 3 28 -8 55 -24 28 -16 55 -29 61 -29 7 0 7
-4 -1 -13 -6 -8 -8 -17 -4 -20 3 -4 1 -7 -5 -7 -7 0 -12 7 -12 16 0 8 -4 12
-10 9 -9 -6 -80 22 -90 36 -3 3 -21 14 -40 24 -19 10 -37 21 -40 24 -3 3 -21
14 -42 25 -22 11 -38 27 -41 42 -5 29 3 30 32 5z m-1286 -5 c5 -13 -24 -30
-45 -27 -5 1 -8 -3 -8 -9 0 -15 -17 -12 -23 4 -4 10 -1 13 9 9 7 -3 14 -1 14
5 0 5 8 9 18 8 9 0 16 5 15 12 -4 17 14 15 20 -2z m1102 -20 c7 3 20 -4 28
-16 11 -15 16 -18 20 -8 3 7 6 2 6 -11 1 -17 -3 -22 -15 -17 -9 3 -18 6 -20 6
-2 0 -4 10 -4 23 0 16 -3 18 -9 8 -11 -17 -31 -6 -30 17 0 10 3 12 5 5 3 -7
11 -10 19 -7z m-1185 -31 c0 -18 -20 -20 -21 -2 0 6 -4 3 -8 -8 -9 -22 -156
-103 -167 -93 -10 11 19 35 35 30 8 -3 11 0 7 6 -6 11 21 26 42 23 6 -1 12 3
12 10 0 6 7 9 15 5 9 -3 15 0 15 10 0 10 6 14 15 10 8 -3 14 -2 14 2 -3 17 2
22 21 22 11 0 20 -7 20 -15z m219 2 c11 -14 5 -27 -11 -27 -5 0 -6 5 -3 10 3
6 1 10 -4 10 -6 0 -11 -7 -11 -15 0 -8 -4 -15 -10 -15 -13 0 -13 6 2 30 15 24
22 25 37 7z m821 -8 c0 -11 -4 -17 -10 -14 -5 3 -10 13 -10 21 0 8 5 14 10 14
6 0 10 -9 10 -21z m53 -15 c9 -4 17 -15 17 -25 0 -18 -2 -19 -30 -4 -28 15
-45 54 -17 41 6 -3 20 -9 30 -12z m196 2 c13 -7 30 -24 37 -37 7 -13 13 -18
14 -11 0 21 20 13 20 -8 0 -11 -4 -20 -10 -20 -5 0 -19 9 -30 20 -11 11 -20
25 -20 30 0 6 -5 10 -11 10 -5 0 -7 -4 -4 -10 9 -14 -8 -13 -23 2 -13 13 -16
38 -4 38 4 -1 18 -7 31 -14z m-1132 -14 c1 -14 -14 -26 -53 -44 -30 -14 -54
-24 -54 -23 0 1 7 16 15 31 9 18 15 23 15 12 0 -15 3 -15 30 -2 17 9 30 22 30
30 0 21 16 17 17 -4z m983 -33 c0 -11 -4 -17 -10 -14 -5 3 -10 15 -10 26 0 11
5 17 10 14 6 -3 10 -15 10 -26z m614 16 c11 -8 16 -18 12 -22 -3 -4 -16 3 -28
15 -25 25 -13 29 16 7z m-44 -5 c0 -5 -4 -10 -10 -10 -5 0 -10 5 -10 10 0 6 5
10 10 10 6 0 10 -4 10 -10z m-540 -26 c0 -14 -4 -23 -10 -19 -5 3 -10 15 -10
26 0 10 5 19 10 19 6 0 10 -12 10 -26z m-1127 -8 c-5 -24 -33 -46 -33 -26 0 6
-4 10 -10 10 -5 0 -9 -6 -7 -12 1 -7 -6 -12 -15 -10 -9 1 -19 -5 -21 -15 -4
-14 -5 -13 -6 5 -1 13 5 22 13 22 7 0 19 7 26 15 11 13 15 13 22 3 6 -10 10
-7 14 10 8 30 22 28 17 -2z m1757 13 c0 -5 5 -7 10 -4 6 3 10 1 10 -4 0 -6 7
-11 15 -11 8 0 15 -4 15 -10 0 -5 7 -7 15 -4 8 4 15 1 15 -5 0 -6 7 -11 15
-11 8 0 15 -4 15 -10 0 -5 7 -7 15 -4 8 4 15 1 15 -6 0 -6 4 -9 9 -5 6 3 14
-3 20 -12 6 -10 11 -14 11 -9 0 5 7 3 15 -4 8 -7 15 -9 15 -5 0 4 6 3 13 -3 6
-5 37 -23 67 -40 30 -16 112 -61 182 -100 191 -106 259 -144 303 -166 22 -11
43 -24 46 -29 3 -5 8 -8 10 -8 10 3 69 -24 69 -31 0 -4 6 -8 14 -8 8 0 21 -6
28 -13 7 -7 28 -19 46 -26 19 -8 39 -19 45 -25 21 -20 126 -86 137 -86 15 0
12 -26 -5 -40 -14 -11 -19 -7 -16 13 0 4 -8 7 -19 7 -11 0 -20 5 -20 10 0 6
-7 10 -15 10 -8 0 -15 5 -15 11 0 5 -4 7 -10 4 -5 -3 -10 -1 -10 4 0 6 -6 11
-14 11 -8 0 -21 6 -28 13 -7 7 -17 15 -23 16 -20 5 -120 55 -125 61 -3 4 -15
10 -27 14 -13 4 -23 12 -23 17 0 5 -7 9 -15 9 -8 0 -15 5 -15 12 0 6 -3 8 -6
5 -6 -6 -59 18 -74 33 -3 3 -26 16 -52 30 -27 13 -48 28 -48 32 0 4 -7 5 -15
2 -8 -4 -15 -1 -15 5 0 6 -7 11 -15 11 -8 0 -15 5 -15 11 0 5 -4 8 -9 4 -6 -3
-14 3 -20 12 -6 10 -11 14 -11 9 0 -5 -6 -4 -12 2 -7 5 -47 27 -88 48 -41 20
-77 40 -80 43 -3 4 -36 22 -75 42 -65 34 -123 65 -220 119 -52 28 -69 45 -61
59 9 14 26 14 26 0z m-586 -15 c9 -8 16 -12 16 -7 0 4 11 -4 24 -19 12 -15 26
-25 29 -21 4 3 9 -2 13 -11 3 -9 12 -16 19 -16 7 0 15 -7 19 -15 3 -8 9 -15
13 -14 17 2 53 -14 53 -24 0 -6 3 -7 6 -4 4 4 19 -2 34 -13 15 -11 29 -17 32
-15 3 3 17 -6 32 -20 14 -13 27 -25 29 -25 34 -8 47 -14 47 -21 0 -5 9 -9 20
-9 11 0 20 -4 20 -10 0 -5 7 -10 15 -10 8 0 15 -4 15 -10 0 -5 7 -6 17 -3 10
4 14 2 9 -5 -3 -6 -2 -13 4 -17 5 -3 10 0 11 7 0 7 5 2 11 -12 6 -14 12 -20
15 -13 3 9 11 8 29 -3 13 -9 21 -21 18 -26 -4 -6 2 -8 15 -3 23 7 27 -2 10
-25 -8 -11 -12 -12 -16 -2 -2 6 -9 12 -14 12 -5 0 -38 17 -73 39 -35 21 -77
44 -95 52 -17 8 -31 17 -31 21 0 5 -6 8 -13 8 -7 0 -46 20 -86 45 -40 25 -75
45 -79 45 -3 0 -13 6 -21 14 -9 8 -27 21 -41 28 -89 47 -138 83 -137 100 2 22
11 23 31 2z m176 5 c0 -5 4 -8 8 -5 5 3 18 -3 28 -13 11 -9 25 -16 32 -13 12
4 17 -29 6 -41 -8 -8 -34 18 -34 34 0 10 -3 10 -11 2 -16 -16 -60 13 -52 33 6
16 23 19 23 3z m-1598 -31 c-4 -3 -47 -28 -97 -54 -77 -40 -148 -79 -420 -229
-22 -12 -134 -73 -250 -135 -115 -61 -216 -117 -223 -122 -7 -6 -15 -8 -19 -5
-7 8 44 58 61 61 28 4 146 68 146 79 0 8 4 7 10 -3 8 -13 10 -12 10 3 0 10 4
16 9 13 5 -3 12 1 15 10 4 10 14 14 25 11 22 -5 54 11 46 24 -6 9 7 13 38 10
9 -1 20 5 23 13 3 9 10 13 15 10 5 -3 12 1 15 10 3 8 12 12 20 9 8 -3 14 0 14
6 0 6 7 11 16 11 9 0 12 5 8 12 -4 7 -3 8 4 4 11 -6 60 18 73 37 3 5 10 8 15
8 5 -1 16 5 24 12 9 7 21 12 28 9 7 -2 12 1 12 8 0 6 5 8 10 5 6 -3 13 1 16
10 4 9 13 14 20 11 8 -3 14 1 14 9 0 9 6 12 15 9 8 -4 15 -1 15 6 0 6 5 8 10
5 6 -3 10 -1 10 5 0 6 5 8 10 5 6 -3 13 1 16 9 3 9 10 14 14 11 5 -3 11 -1 15
5 4 6 11 8 16 5 5 -4 9 1 9 10 0 9 5 13 10 10 6 -3 10 -1 10 5 0 6 4 9 9 5 5
-3 12 -1 16 5 3 5 15 10 26 10 11 0 17 5 14 10 -3 6 3 10 14 10 12 0 21 5 21
11 0 6 7 9 15 5 9 -3 15 0 15 9 0 9 6 12 15 9 10 -4 15 0 15 12 0 16 2 17 10
4 5 -8 6 -18 2 -22z m1277 -32 c-1 -17 -2 -17 -6 -3 -2 9 -9 15 -14 12 -5 -4
-9 1 -9 10 0 9 -4 13 -10 10 -5 -3 -10 1 -10 10 0 14 2 14 25 -1 15 -10 25
-25 24 -38z m581 19 c0 -8 -4 -15 -10 -15 -5 0 -10 7 -10 15 0 8 5 15 10 15 6
0 10 -7 10 -15z m56 -8 c6 2 22 -7 36 -20 13 -13 30 -21 36 -19 7 2 12 -4 12
-13 0 -9 6 -15 13 -14 21 4 64 -19 71 -36 5 -14 9 -15 21 -5 13 10 15 9 16
-11 0 -13 3 -18 6 -11 7 17 23 15 23 -4 0 -11 6 -14 22 -9 17 6 20 4 14 -10
-4 -13 -2 -16 9 -11 22 8 45 -3 45 -23 0 -14 2 -14 10 -1 6 10 10 11 10 3 0
-7 7 -13 15 -13 8 0 15 -4 15 -10 0 -5 7 -7 15 -4 10 4 15 0 15 -12 0 -16 2
-17 10 -4 5 8 10 10 10 3 0 -6 21 -21 48 -34 26 -12 49 -25 52 -29 3 -3 25
-14 50 -25 25 -11 47 -22 50 -26 3 -3 23 -15 45 -26 71 -35 180 -97 193 -110
7 -7 19 -13 25 -13 7 0 1 -6 -13 -13 -22 -12 -30 -11 -72 12 -26 14 -91 50
-145 80 -54 30 -123 67 -153 84 -30 16 -60 33 -65 38 -6 4 -35 21 -65 37 -209
113 -325 178 -360 202 -14 9 -33 20 -42 23 -10 4 -18 16 -18 28 0 20 2 21 18
7 9 -9 22 -14 28 -11z m-1766 3 c0 -5 -5 -10 -11 -10 -5 0 -8 -4 -5 -9 4 -5
-4 -6 -16 -3 -19 5 -20 7 -5 10 9 2 17 8 17 13 0 5 5 9 10 9 6 0 10 -4 10 -10z
m1565 -9 c3 -5 19 -12 35 -16 18 -4 36 -17 45 -33 8 -15 14 -21 15 -13 0 11 3
11 15 1 8 -7 12 -16 9 -21 -3 -5 0 -9 5 -9 6 0 11 5 11 10 0 6 8 5 20 -2 11
-7 20 -21 20 -30 0 -10 4 -18 10 -18 6 0 9 3 8 8 -2 4 2 7 7 7 6 0 10 -5 10
-12 0 -6 4 -15 9 -20 5 -5 6 -2 1 5 -5 10 -2 13 11 10 11 -2 19 -8 19 -15 0
-6 3 -15 8 -19 4 -4 7 -2 7 4 0 7 5 12 10 12 6 0 10 -7 10 -15 0 -8 6 -12 14
-9 7 3 16 -2 19 -10 4 -9 13 -13 20 -10 8 3 17 -2 20 -10 4 -9 13 -13 22 -10
8 3 15 1 15 -5 0 -6 7 -11 15 -11 8 0 15 -5 15 -11 0 -6 7 -9 15 -5 9 3 15 0
15 -8 0 -8 15 -17 35 -20 19 -4 35 -10 35 -14 0 -4 29 -20 65 -37 35 -16 65
-33 65 -37 0 -5 5 -8 10 -8 18 0 80 -45 80 -57 0 -22 -37 -14 -92 18 -29 18
-73 43 -98 57 -92 50 -147 80 -220 119 -41 22 -91 49 -110 60 -19 11 -46 25
-59 32 -16 9 -20 15 -12 21 9 5 9 9 -3 13 -9 4 -16 2 -16 -3 0 -5 -15 -1 -32
10 -18 11 -41 23 -50 26 -10 4 -19 16 -19 28 -1 16 -2 17 -6 4 -4 -17 -6 -17
-31 -1 -15 9 -28 18 -30 19 -1 0 0 9 4 18 7 18 20 21 29 7z m-398 -16 c9 -24
-1 -27 -15 -5 -8 13 -8 20 -2 20 6 0 13 -7 17 -15z m-1212 -23 c-6 -7 -34 11
-29 19 3 5 11 3 19 -4 7 -6 12 -13 10 -15z m1259 -14 c14 -9 1 -22 -13 -13 -6
3 -11 16 -10 28 0 15 2 17 6 7 3 -8 11 -18 17 -22z m-1304 7 c0 -9 -6 -12 -15
-9 -8 4 -12 10 -9 15 8 14 24 10 24 -6z m190 5 c0 -5 -5 -10 -11 -10 -5 0 -7
5 -4 10 3 6 8 10 11 10 2 0 4 -4 4 -10z m-222 -28 c2 -6 -19 -22 -46 -36 -47
-24 -50 -24 -45 -5 4 14 11 18 24 14 14 -5 17 -2 13 9 -3 9 -1 16 5 16 6 0 11
-5 11 -11 0 -5 4 -8 10 -4 5 3 6 13 3 22 -4 10 -2 14 7 11 8 -2 15 -9 18 -16z
m192 8 c0 -5 -4 -10 -10 -10 -5 0 -10 5 -10 10 0 6 5 10 10 10 6 0 10 -4 10
-10z m1180 -23 c0 -5 -4 -5 -10 -2 -5 3 -10 14 -10 23 0 15 2 15 10 2 5 -8 10
-19 10 -23z m-1154 -4 c-10 -10 -19 5 -10 18 6 11 8 11 12 0 2 -7 1 -15 -2
-18z m-32 -8 c-4 -8 -10 -15 -15 -15 -4 0 -6 7 -3 15 4 8 10 15 15 15 4 0 6
-7 3 -15z m1036 5 c0 -5 -2 -10 -4 -10 -3 0 -8 5 -11 10 -3 6 -1 10 4 10 6 0
11 -4 11 -10z m180 -11 c0 -6 -4 -7 -10 -4 -5 3 -10 11 -10 16 0 6 5 7 10 4 6
-3 10 -11 10 -16z m-117 -23 c3 3 11 -3 18 -14 7 -11 19 -18 26 -15 7 3 13 1
13 -3 0 -5 13 -15 29 -22 16 -7 41 -24 56 -38 15 -14 30 -23 32 -20 3 3 18 -2
32 -12 14 -10 38 -24 54 -32 27 -14 37 -40 15 -40 -7 0 -25 8 -39 18 -91 60
-220 145 -251 167 -21 13 -38 30 -38 37 0 6 10 2 23 -10 13 -12 26 -19 30 -16z
m-1139 9 c-4 -8 -11 -15 -16 -15 -6 0 -5 6 2 15 7 8 14 15 16 15 2 0 1 -7 -2
-15z m1290 0 c3 -8 1 -15 -3 -15 -5 0 -11 7 -15 15 -3 8 -1 15 3 15 5 0 11 -7
15 -15z m-1574 -15 c-8 -6 -10 -10 -4 -10 5 0 15 5 22 12 8 8 12 9 12 1 0 -6
-44 -35 -97 -63 -54 -29 -105 -57 -113 -64 -29 -24 -117 -66 -124 -59 -3 3 -6
1 -6 -5 0 -7 -5 -12 -11 -12 -6 0 -23 -9 -37 -19 -36 -25 -208 -112 -228 -115
-8 -1 -19 -7 -22 -13 -9 -13 -123 -75 -129 -69 -2 2 -15 -7 -29 -21 -14 -14
-31 -22 -39 -19 -9 3 -15 -1 -15 -10 0 -10 -6 -14 -14 -11 -7 3 -20 -3 -29
-14 -21 -24 -37 -24 -37 0 0 15 32 35 138 87 75 37 140 72 144 78 4 6 8 7 8 2
0 -5 7 -3 15 4 8 7 15 10 15 7 0 -3 20 5 46 19 25 13 51 24 57 24 7 0 20 9 30
20 10 12 22 18 27 15 6 -3 10 -1 10 4 0 6 6 11 14 11 7 0 19 7 26 15 7 8 16
12 21 9 5 -3 9 0 9 5 0 6 6 11 14 11 8 0 21 6 28 14 15 14 58 31 71 28 4 -1 7
3 7 8 0 6 9 10 20 10 11 0 20 4 20 9 0 5 10 13 21 16 15 5 18 10 9 15 -8 5 -7
9 5 13 9 4 13 3 10 -3 -13 -20 14 -9 29 12 9 12 16 18 16 13 0 -5 7 0 16 11 8
10 13 13 9 7 -12 -24 17 -13 43 17 14 16 28 27 31 24 3 -3 -1 -9 -9 -14z m248
-2 c-2 -6 -10 -14 -16 -16 -7 -2 -10 2 -6 12 7 18 28 22 22 4z m1372 -10 c0
-13 -23 -5 -28 10 -2 7 2 10 12 6 9 -3 16 -11 16 -16z m-1428 -11 c16 13 20
14 16 3 -4 -14 -290 -180 -309 -180 -5 0 -9 -4 -9 -10 0 -5 -4 -10 -10 -10 -5
0 -47 -21 -92 -47 -136 -78 -217 -115 -203 -94 2 4 -2 8 -9 8 -8 0 -12 -6 -9
-13 3 -8 -6 -19 -21 -25 -14 -7 -26 -17 -26 -22 0 -5 -8 -3 -17 4 -9 8 -14 9
-10 3 3 -6 -11 -20 -33 -33 -31 -17 -39 -19 -34 -7 9 22 -1 20 -28 -7 -13 -13
-43 -32 -68 -42 -25 -10 -52 -24 -60 -31 -25 -19 -80 -45 -80 -37 0 10 66 53
80 53 5 0 10 4 10 9 0 5 13 13 28 19 16 5 50 23 77 40 37 23 53 28 62 20 10
-8 12 -7 7 5 -6 16 28 42 40 30 3 -3 6 0 7 8 0 8 4 6 9 -6 9 -20 9 -20 9 0 1
16 26 34 108 75 134 68 126 65 120 49 -2 -8 -10 -13 -16 -11 -6 1 -11 -2 -11
-8 0 -5 3 -10 8 -10 13 1 37 25 37 38 0 8 15 20 33 27 41 18 43 5 1 -14 -16
-7 -28 -15 -26 -18 12 -11 67 29 67 48 0 15 5 19 15 15 8 -3 15 -1 15 4 0 5 7
7 15 4 10 -4 15 0 15 12 0 16 2 17 10 4 8 -13 10 -13 10 2 0 11 5 15 15 12 10
-4 15 0 15 11 0 14 3 15 14 6 11 -9 15 -6 21 16 7 26 8 26 15 8 8 -19 8 -19
18 5 6 14 11 19 11 13 1 -19 21 -16 21 3 0 8 4 13 9 10 15 -10 61 12 61 28 0
10 6 13 16 9 10 -4 17 2 22 18 5 20 7 21 10 6 4 -18 4 -18 24 0z m1472 -12
c10 -8 22 -12 26 -10 5 3 10 -2 14 -10 3 -8 12 -12 21 -9 8 4 15 1 15 -6 0 -7
7 -10 15 -6 8 3 15 1 15 -4 0 -6 7 -10 15 -10 8 0 15 -4 15 -9 0 -8 37 -24 53
-22 4 1 7 -3 7 -7 0 -5 16 -14 35 -22 19 -8 35 -17 35 -22 0 -4 7 -8 15 -8 8
0 15 -4 15 -9 0 -5 8 -11 18 -14 9 -4 40 -20 67 -37 28 -17 58 -33 68 -37 9
-3 17 -9 17 -14 0 -5 6 -9 14 -9 7 0 24 -10 38 -22 14 -13 32 -24 39 -26 8 -2
16 -8 17 -13 2 -5 8 -9 14 -9 12 0 106 -64 143 -98 8 -7 15 -11 15 -7 0 3 13
-3 29 -14 16 -12 34 -21 40 -21 6 0 11 -6 11 -14 0 -13 56 -46 79 -46 6 0 11
-5 11 -11 0 -5 5 -7 10 -4 6 3 10 1 10 -5 0 -6 5 -8 10 -5 6 3 10 2 10 -3 0
-5 29 -21 65 -37 36 -15 65 -30 65 -34 0 -4 6 -8 14 -8 16 0 126 -64 126 -73
0 -3 -10 -11 -21 -19 -19 -11 -21 -11 -16 4 4 9 3 13 -2 10 -15 -9 -101 37
-101 54 0 14 -2 14 -10 1 -8 -12 -10 -12 -16 3 -3 9 -10 14 -15 11 -5 -3 -9 0
-9 6 0 6 -4 9 -9 5 -5 -3 -12 -1 -16 5 -4 6 -11 8 -16 5 -5 -4 -9 -2 -9 2 0 5
-16 17 -35 27 -19 11 -35 22 -35 26 0 4 -18 13 -40 20 -22 7 -40 17 -40 22 0
4 -7 8 -15 8 -8 0 -43 18 -77 40 -84 54 -86 55 -189 130 -49 36 -119 81 -156
100 -38 19 -75 40 -83 46 -8 6 -46 28 -85 49 -38 21 -95 54 -125 75 -30 20
-74 47 -97 60 -24 13 -43 27 -43 32 0 12 12 9 34 -7z m-1564 -19 c0 -3 -4 -8
-10 -11 -5 -3 -10 -1 -10 4 0 6 5 11 10 11 6 0 10 -2 10 -4z m194 -34 c-6 -20
-61 -55 -75 -46 -5 3 -9 -2 -9 -10 0 -9 -4 -16 -10 -16 -19 0 -10 32 10 37 11
3 20 9 20 14 0 5 6 9 14 9 7 0 19 7 26 15 17 20 29 19 24 -3z m1119 -21 c3
-14 1 -18 -9 -14 -8 3 -14 14 -14 25 0 23 16 16 23 -11z m-733 -14 c0 -7 -9
-18 -20 -25 -22 -14 -25 -9 -10 19 12 21 30 26 30 6z m773 -7 c3 -13 0 -20 -9
-20 -8 0 -14 9 -14 20 0 11 4 20 9 20 5 0 11 -9 14 -20z m-823 -17 c0 -17 -72
-61 -84 -52 -3 2 -12 -5 -20 -16 -9 -11 -16 -15 -16 -10 0 7 -3 7 -8 0 -4 -5
-17 -16 -29 -23 -21 -11 -23 -10 -23 13 0 26 15 34 23 13 3 -8 6 -5 6 5 1 14
6 17 21 12 15 -5 20 -2 20 10 0 11 5 15 15 12 8 -4 17 -2 20 3 4 6 15 10 27
10 11 0 22 8 25 20 7 25 23 26 23 3z m-450 -6 c0 -7 -9 -18 -20 -25 -17 -11
-20 -10 -20 7 0 11 8 22 18 24 9 3 18 5 20 6 1 0 2 -5 2 -12z m187 -29 c-3 -7
-5 -2 -5 12 0 14 2 19 5 13 2 -7 2 -19 0 -25z m-241 -15 c-11 -11 -19 6 -11
24 8 17 8 17 12 0 3 -10 2 -21 -1 -24z m2021 6 c-7 -11 -15 -15 -21 -9 -13 13
1 41 18 34 12 -5 13 -9 3 -25z m-1797 12 c0 -5 -7 -14 -15 -21 -16 -14 -18
-10 -9 14 6 17 24 22 24 7z m-259 -34 c-20 -25 -51 -28 -51 -6 0 21 16 26 23
7 4 -8 8 -4 13 10 4 16 10 20 17 13 7 -7 6 -15 -2 -24z m212 4 c-4 -16 -8 -19
-14 -10 -4 7 -3 19 3 26 14 18 19 12 11 -16z m1234 7 c-3 -8 -6 -5 -6 6 -1 11
2 17 5 13 3 -3 4 -12 1 -19z m223 1 c0 -5 7 -9 15 -9 8 0 15 -5 15 -11 0 -5 5
-7 10 -4 6 3 13 0 16 -9 3 -8 12 -12 20 -9 8 3 14 0 14 -7 0 -6 4 -9 9 -5 5 3
12 2 14 -2 3 -5 50 -30 104 -58 54 -27 100 -53 103 -56 3 -4 15 -9 26 -13 33
-10 75 -53 68 -70 -7 -18 -22 -13 -91 31 -29 18 -55 33 -58 33 -11 0 -220 123
-223 132 -2 4 -8 8 -13 8 -6 0 -24 10 -42 22 -18 13 -34 24 -36 25 -1 1 0 6 3
11 7 12 46 4 46 -9z m420 2 c0 -8 36 -22 65 -26 6 0 9 -7 7 -14 -1 -7 3 -11
10 -8 7 2 32 -9 56 -25 23 -16 42 -25 43 -21 0 4 5 -3 10 -16 13 -33 5 -37
-28 -13 -27 19 -68 43 -148 85 -22 12 -42 22 -44 24 -1 1 0 6 4 12 8 13 25 14
25 2z m-1914 -38 c-11 -11 -19 6 -11 24 8 17 8 17 12 0 3 -10 2 -21 -1 -24z
m1333 9 c1 10 41 -24 41 -35 0 -4 -18 2 -40 14 -42 24 -49 34 -27 42 6 2 15
-3 19 -12 4 -9 7 -13 7 -9z m-1359 -14 c0 -18 -2 -20 -9 -8 -6 8 -7 18 -5 22
9 14 14 9 14 -14z m200 -20 c0 -5 -4 -8 -10 -8 -5 0 -10 10 -10 23 0 18 2 19
10 7 5 -8 10 -18 10 -22z m-450 8 c0 -8 -4 -17 -8 -20 -4 -2 -8 4 -8 15 0 10
4 19 8 19 4 0 8 -6 8 -14z m40 10 c0 -3 -4 -8 -10 -11 -5 -3 -10 -1 -10 4 0 6
5 11 10 11 6 0 10 -2 10 -4z m184 -11 c3 -8 1 -15 -4 -15 -6 0 -10 7 -10 15 0
8 2 15 4 15 2 0 6 -7 10 -15z m-27 -15 c1 -11 -2 -20 -5 -20 -4 0 -8 9 -9 20
-1 11 2 20 5 20 4 0 8 -9 9 -20z m-258 -6 c-12 -15 -11 -16 11 -9 24 7 24 7 5
-9 -11 -8 -23 -16 -27 -16 -13 0 -9 38 5 43 20 9 20 8 6 -9z m231 7 c0 -6 -4
-13 -10 -16 -5 -3 -10 1 -10 9 0 9 5 16 10 16 6 0 10 -4 10 -9z m239 -7 c6 4
11 4 11 -1 0 -7 -26 -22 -67 -40 -7 -3 -13 -1 -13 5 0 5 9 12 20 15 11 3 20 9
19 14 -3 19 2 27 10 14 5 -7 14 -10 20 -7z m431 -4 c0 -13 -10 -24 -26 -30
-33 -13 -33 -13 -27 10 3 11 10 20 15 20 5 0 6 -4 3 -10 -3 -5 -1 -10 4 -10 6
0 11 9 11 20 0 11 5 20 10 20 6 0 10 -9 10 -20z m-937 -25 c4 -8 2 -17 -3 -20
-6 -4 -10 3 -10 14 0 25 6 27 13 6z m231 0 c-4 -8 -8 -15 -10 -15 -2 0 -4 7
-4 15 0 8 4 15 10 15 5 0 7 -7 4 -15z m-31 -15 c-6 -23 -12 -24 -33 -9 -12 9
-12 10 4 5 13 -5 17 -2 12 9 -3 9 0 15 8 15 9 0 12 -7 9 -20z m673 3 c-4 -23
-98 -76 -108 -60 -5 8 -8 7 -8 -4 0 -9 -11 -21 -24 -27 -27 -12 -37 -7 -29 14
4 11 9 12 19 3 11 -9 14 -8 14 4 0 19 50 54 50 35 1 -7 7 -2 14 11 10 18 15
20 19 10 4 -10 6 -9 6 3 1 11 6 15 16 12 8 -4 15 -1 15 5 0 6 4 11 9 11 5 0 8
-7 7 -17z m-903 -8 c4 -8 2 -17 -3 -20 -6 -4 -10 3 -10 14 0 25 6 27 13 6z
m445 6 c10 -6 7 -12 -13 -25 -15 -10 -29 -15 -32 -12 -3 3 1 8 10 12 9 3 13
12 10 20 -6 16 5 18 25 5z m-43 -11 c-3 -5 -11 -10 -16 -10 -6 0 -7 5 -4 10 3
6 11 10 16 10 6 0 7 -4 4 -10z m-432 -14 c3 -8 0 -16 -6 -19 -7 -3 -13 3 -13
14 0 22 12 25 19 5z m193 -23 c-11 -11 -17 4 -9 23 7 18 8 18 11 1 2 -10 1
-21 -2 -24z m474 29 c0 -10 -40 -48 -46 -44 -2 1 -21 -5 -42 -14 -20 -10 -42
-16 -49 -15 -6 1 -14 -6 -17 -16 -3 -11 -4 -8 -3 7 1 14 8 26 15 26 6 1 13 2
15 3 1 2 13 5 27 7 14 2 32 14 41 26 16 21 17 21 22 2 5 -18 5 -17 12 4 7 21
25 31 25 14z m-703 -22 c1 -11 -2 -22 -8 -25 -10 -7 -13 28 -2 38 9 9 9 10 10
-13z m418 0 c-3 -5 -11 -10 -16 -10 -6 0 -7 5 -4 10 3 6 11 10 16 10 6 0 7 -4
4 -10z m-449 -12 c-3 -22 -17 -39 -29 -35 -7 2 -17 -3 -24 -12 -9 -12 -12 -12
-13 -3 0 19 23 39 38 34 6 -2 12 3 12 12 0 9 4 16 9 16 5 0 8 -6 7 -12z m484
8 c0 -3 -4 -8 -10 -11 -5 -3 -10 -1 -10 4 0 6 5 11 10 11 6 0 10 -2 10 -4z
m-250 -16 c0 -5 -4 -10 -10 -10 -5 0 -10 5 -10 10 0 6 5 10 10 10 6 0 10 -4
10 -10z m180 0 c0 -5 -4 -10 -10 -10 -5 0 -10 5 -10 10 0 6 5 10 10 10 6 0 10
-4 10 -10z m-32 -24 c0 -25 -30 -46 -36 -27 -2 6 -8 9 -12 6 -5 -3 -7 -12 -4
-19 3 -8 -4 -16 -16 -19 -17 -4 -19 -3 -9 9 15 19 4 18 -27 -2 -13 -9 -27 -14
-31 -10 -8 8 -7 8 47 33 35 16 48 18 59 10 12 -10 14 -9 9 4 -4 9 -1 22 5 28
15 15 15 15 15 -13z m52 9 c-7 -8 -20 -15 -29 -15 -11 1 -8 5 9 15 32 18 35
18 20 0z m1290 5 c0 -5 -2 -10 -4 -10 -3 0 -8 5 -11 10 -3 6 -1 10 4 10 6 0
11 -4 11 -10z m40 -34 c0 -5 -7 -3 -15 4 -8 7 -15 20 -15 28 0 13 3 12 15 -4
8 -10 15 -23 15 -28z m-1570 24 c0 -5 -5 -10 -11 -10 -5 0 -7 5 -4 10 3 6 8
10 11 10 2 0 4 -4 4 -10z m-930 -22 c0 -16 -3 -19 -11 -11 -6 6 -8 16 -5 22
11 17 16 13 16 -11z m884 -2 c-10 -8 -23 -12 -27 -9 -5 3 2 11 15 17 29 16 38
10 12 -8z m676 3 c0 -5 -4 -9 -10 -9 -5 0 -10 7 -10 16 0 8 5 12 10 9 6 -3 10
-10 10 -16z m-900 0 c0 -6 -9 -13 -20 -16 -11 -3 -20 -10 -20 -16 0 -6 -3 -8
-6 -4 -4 3 -13 0 -21 -8 -19 -19 -33 -19 -33 1 0 8 5 12 10 9 6 -3 10 -1 10 4
0 6 7 11 15 11 8 0 15 4 15 10 0 5 7 7 15 4 8 -4 15 -1 15 5 0 6 5 11 10 11 6
0 10 -5 10 -11z m863 -7 c-4 -15 -89 -72 -108 -72 -9 0 -5 29 5 35 6 4 7 -1 4
-12 -4 -11 4 -7 23 12 15 17 24 25 19 18 -16 -24 13 -14 36 12 26 30 28 30 21
7z m994 -4 c-3 -8 -6 -5 -6 6 -1 11 2 17 5 13 3 -3 4 -12 1 -19z m-1673 -20
c-10 -16 -22 -7 -17 13 4 15 8 17 14 8 4 -7 5 -17 3 -21z m448 10 c-7 -7 -12
-8 -12 -2 0 14 12 26 19 19 2 -3 -1 -11 -7 -17z m1298 -13 c0 -8 8 -12 20 -10
11 2 24 -3 30 -13 5 -9 10 -13 10 -8 0 5 9 1 20 -9 11 -10 20 -14 20 -9 0 5 4
4 8 -1 4 -6 27 -20 52 -33 102 -52 185 -102 183 -111 -2 -6 3 -8 11 -5 8 3 17
0 21 -6 8 -12 55 -34 68 -32 4 1 10 -5 13 -13 4 -8 12 -15 20 -15 8 0 14 -5
14 -11 0 -5 5 -7 10 -4 6 3 13 0 16 -9 3 -8 12 -12 20 -9 8 3 14 0 14 -6 0 -6
9 -11 19 -11 10 0 21 -7 25 -15 3 -8 12 -15 21 -15 8 0 15 -4 15 -10 0 -5 7
-10 15 -10 8 0 15 -7 15 -15 0 -9 6 -12 15 -9 8 4 15 2 15 -4 0 -6 9 -8 20 -5
14 4 20 0 20 -10 0 -9 9 -18 19 -22 13 -4 17 -12 14 -25 -7 -25 -15 -25 -38 0
-10 11 -20 18 -23 15 -2 -2 -19 7 -37 20 -17 14 -35 25 -39 25 -3 0 -35 17
-69 39 -103 64 -359 214 -409 240 -27 14 -48 30 -48 37 0 8 -6 11 -15 8 -8 -3
-17 0 -20 8 -3 8 -15 14 -26 15 -27 2 -49 21 -49 42 0 14 -2 14 -10 1 -8 -12
-10 -12 -16 3 -3 9 -10 14 -15 11 -5 -3 -9 2 -9 10 0 12 5 13 30 5 17 -6 30
-17 30 -24z m-1320 18 c-1 -19 -19 -34 -41 -36 -13 0 -27 -6 -31 -11 -4 -6
-11 -7 -15 -2 -10 10 28 38 43 32 7 -3 15 2 18 10 6 14 26 20 26 7z m-464 -29
c-4 -9 -9 -15 -11 -12 -3 3 -3 13 1 22 4 9 9 15 11 12 3 -3 3 -13 -1 -22z
m1579 8 c-3 -3 -11 0 -18 7 -9 10 -8 11 6 5 10 -3 15 -9 12 -12z m-1613 -34
c-9 -9 -12 -7 -12 12 0 19 3 21 12 12 9 -9 9 -15 0 -24z m-225 0 c-3 -8 -6 -5
-6 6 -1 11 2 17 5 13 3 -3 4 -12 1 -19z m426 7 c4 -8 2 -17 -3 -20 -6 -4 -10
-4 -10 -1 0 2 -3 11 -6 20 -3 9 -2 16 4 16 5 0 12 -7 15 -15z m421 -8 c-8 -22
-54 -52 -54 -35 0 7 -9 2 -20 -12 -11 -14 -20 -20 -20 -14 0 5 9 20 20 32 21
23 36 30 25 12 -13 -21 11 -9 29 15 20 27 30 28 20 2z m-225 -1 c10 -12 8 -13
-8 -9 -12 3 -18 9 -15 14 7 12 10 11 23 -5z m-639 -6 c0 -5 -5 -10 -11 -10 -5
0 -7 5 -4 10 3 6 8 10 11 10 2 0 4 -4 4 -10z m196 1 c8 7 17 10 20 7 3 -3 -11
-15 -31 -26 -19 -12 -35 -17 -35 -12 0 6 5 10 10 10 6 0 10 8 11 18 0 11 2 12
6 4 4 -10 8 -10 19 -1z m217 -4 c6 -17 -27 -39 -48 -31 -17 7 -21 24 -5 24 6
0 10 -4 10 -10 0 -5 6 -7 14 -4 8 3 12 12 9 20 -3 8 -1 14 5 14 5 0 12 -6 15
-13z m-443 -13 c0 -4 -96 -54 -104 -54 -3 0 -3 6 0 14 3 9 12 12 21 9 11 -4
14 -2 9 6 -4 6 -4 11 1 10 20 -3 34 2 28 11 -4 6 1 7 11 3 12 -4 15 -3 10 5
-5 8 -2 10 8 6 9 -3 16 -8 16 -10z m-490 -19 c0 -22 -2 -24 -14 -13 -10 9 -11
17 -4 26 15 17 18 15 18 -13z m1140 15 c0 -5 -5 -10 -11 -10 -5 0 -7 5 -4 10
3 6 8 10 11 10 2 0 4 -4 4 -10z m-496 -40 c-13 -13 -16 -13 -24 0 -5 8 -9 20
-9 25 0 6 3 4 6 -2 7 -19 23 -16 23 5 0 14 2 15 10 2 6 -10 5 -20 -6 -30z
m216 31 c0 -6 -4 -13 -10 -16 -5 -3 -10 1 -10 9 0 9 5 16 10 16 6 0 10 -4 10
-9z m239 0 c9 -6 10 -11 2 -15 -6 -4 -11 -2 -11 4 0 6 -4 8 -10 5 -5 -3 -10
-1 -10 4 0 13 10 14 29 2z m-36 -15 c3 -8 -4 -21 -18 -30 l-23 -15 15 29 c17
34 19 35 26 16z m208 -29 c-13 -13 -15 1 -4 30 7 17 8 17 11 -1 2 -10 -1 -23
-7 -29z m1265 22 c3 -22 6 -23 14 -4 9 19 9 19 16 -3 4 -15 12 -21 21 -18 8 4
27 -7 43 -23 17 -17 31 -24 33 -17 3 6 9 0 15 -14 6 -14 11 -19 11 -12 1 21
21 3 21 -19 0 -19 -1 -19 -16 -5 -8 9 -22 16 -30 16 -18 0 -54 31 -54 47 0 6
-4 15 -10 18 -6 3 -7 -1 -4 -9 8 -20 -10 -21 -25 -2 -6 8 -25 19 -41 26 -31
13 -43 34 -13 23 12 -5 14 -3 8 8 -5 8 -5 11 1 6 5 -5 10 -13 10 -18z m-1698
-5 c14 -15 14 -16 -3 -13 -10 2 -20 10 -23 17 -5 17 6 15 26 -4z m-702 -20
c-4 -9 -9 -14 -12 -11 -4 3 -13 0 -21 -8 -16 -17 -43 -20 -43 -5 0 10 72 51
79 44 2 -2 1 -11 -3 -20z m470 14 c8 -12 -21 -38 -43 -38 -18 0 -16 15 3 34
18 19 30 20 40 4z m190 -12 c9 -9 10 -17 4 -21 -5 -3 -10 -1 -10 6 0 7 -11 2
-25 -11 l-25 -23 0 22 c0 16 4 21 15 17 9 -3 15 0 15 9 0 19 8 19 26 1z m202
-27 c-7 -5 -19 -7 -25 -4 -7 2 -13 -2 -13 -9 0 -12 -28 -31 -36 -24 -1 2 9 16
22 31 13 15 24 23 24 17 0 -15 25 -7 26 8 3 24 6 27 11 8 3 -10 -1 -22 -9 -27z
m240 32 c10 -6 10 -10 -2 -20 -16 -14 -60 -5 -51 9 3 5 13 6 22 3 11 -4 14 -3
9 5 -8 14 3 15 22 3z m-698 -32 c0 -11 -4 -17 -10 -14 -5 3 -10 1 -10 -6 0 -7
-2 -10 -5 -8 -7 8 6 49 16 49 5 0 9 -9 9 -21z m176 -26 c-8 -25 -63 -56 -84
-48 -9 3 -13 3 -9 -1 9 -10 -8 -21 -158 -99 -71 -38 -169 -90 -218 -117 -48
-26 -90 -48 -93 -48 -3 0 -22 -11 -42 -25 -42 -29 -65 -32 -60 -9 2 9 46 39
98 66 52 28 124 67 160 88 110 63 248 129 256 122 4 -4 4 -2 0 5 -4 7 2 17 14
23 15 8 20 8 21 -2 0 -7 5 -3 11 9 10 21 31 34 52 32 5 0 13 5 17 13 7 10 9
10 9 1 0 -7 5 -13 10 -13 6 0 10 8 10 17 0 9 3 14 6 10 3 -3 3 -14 0 -24z
m484 17 c0 -5 -4 -10 -9 -10 -5 0 -17 -3 -27 -7 -16 -6 -17 -5 -4 10 17 18 40
22 40 7z m1270 -16 c0 5 7 3 15 -4 8 -7 15 -9 15 -4 0 5 5 1 11 -9 14 -24 6
-32 -13 -14 -8 8 -24 18 -36 21 -12 4 -22 15 -22 24 1 15 3 14 15 -2 8 -11 15
-16 15 -12z m-1550 12 c0 -3 -4 -8 -10 -11 -5 -3 -10 -1 -10 4 0 6 5 11 10 11
6 0 10 -2 10 -4z m220 -16 c0 -11 -2 -20 -4 -20 -2 0 -6 9 -9 20 -3 11 -1 20
4 20 5 0 9 -9 9 -20z m-1143 -5 c0 -8 -4 -15 -9 -15 -4 0 -8 7 -8 15 0 8 4 15
8 15 5 0 9 -7 9 -15z m493 2 c0 -7 -28 -28 -62 -46 -35 -19 -85 -46 -113 -61
-27 -15 -85 -46 -127 -68 -42 -22 -87 -47 -100 -56 -28 -20 -38 -20 -38 -2 0
19 70 61 325 197 95 51 115 57 115 36z m630 -19 c0 -5 -4 -8 -10 -8 -5 0 -10
10 -10 23 0 18 2 19 10 7 5 -8 10 -18 10 -22z m1187 10 c-3 -8 -6 -5 -6 6 -1
11 2 17 5 13 3 -3 4 -12 1 -19z m-1405 -10 c-9 -9 -15 -9 -24 0 -9 9 -7 12 12
12 19 0 21 -3 12 -12z m154 -15 c-5 -39 -6 -41 -16 -18 -8 19 -9 19 -9 -2 -1
-26 -16 -31 -25 -8 -4 10 3 20 19 27 14 6 25 15 25 20 0 4 2 8 4 8 3 0 3 -12
2 -27z m34 7 c0 -11 -4 -20 -10 -20 -5 0 -10 9 -10 20 0 11 5 20 10 20 6 0 10
-9 10 -20z m1664 -2 c4 4 12 -1 17 -11 6 -9 15 -14 21 -11 7 5 9 1 5 -9 -4
-12 -2 -14 10 -10 8 3 18 2 22 -3 5 -8 75 -46 158 -88 13 -6 23 -14 23 -18 0
-5 6 -8 13 -8 7 0 23 -9 34 -19 12 -11 23 -17 27 -14 3 3 8 -1 12 -10 3 -9 12
-13 20 -10 16 6 18 -5 4 -27 -7 -10 -12 -12 -17 -4 -5 6 -18 14 -30 18 -13 4
-23 11 -23 16 0 4 -11 11 -24 14 -14 3 -31 12 -38 19 -7 6 -35 24 -63 38 -27
14 -79 44 -114 65 -35 21 -69 39 -75 39 -6 0 -12 14 -14 30 -2 27 -1 28 11 13
8 -10 17 -14 21 -10z m-1903 -21 c-8 -8 -11 -8 -11 2 0 7 -4 10 -9 6 -5 -3
-13 0 -17 6 -4 7 -3 9 2 6 6 -3 16 -2 24 3 19 12 27 -7 11 -23z m1493 12 c-3
-5 -10 -7 -15 -3 -5 3 -7 10 -3 15 3 5 10 7 15 3 5 -3 7 -10 3 -15z m226 -11
c0 7 8 4 20 -8 24 -24 28 -49 4 -29 -9 7 -26 18 -37 24 -12 6 -23 19 -25 30
-3 17 0 17 17 -5 11 -14 21 -19 21 -12z m-2570 -9 c0 -5 -4 -9 -10 -9 -5 0
-10 7 -10 16 0 8 5 12 10 9 6 -3 10 -10 10 -16z m789 -30 c-13 -10 -28 -19
-33 -19 -6 0 -1 7 10 15 10 8 15 14 9 15 -15 0 -31 -13 -38 -32 -6 -18 -27
-25 -27 -9 0 12 47 61 60 61 5 0 10 -4 10 -10 0 -5 5 -10 11 -10 6 0 8 9 4 23
-5 20 -5 21 6 3 10 -16 8 -22 -12 -37z m1586 42 c3 -5 1 -12 -5 -16 -5 -3 -10
1 -10 9 0 18 6 21 15 7z m-1395 -51 c-28 -22 -40 -25 -40 -10 0 6 4 10 10 10
5 0 7 7 4 15 -4 8 -2 15 4 15 6 0 13 -6 15 -12 3 -7 6 -4 6 7 1 15 3 17 14 6
10 -10 7 -16 -13 -31z m1430 19 c0 -5 -4 -9 -10 -9 -5 0 -10 7 -10 16 0 8 5
12 10 9 6 -3 10 -10 10 -16z m17 -21 c-3 -7 -5 -2 -5 12 0 14 2 19 5 13 2 -7
2 -19 0 -25z m-2427 7 c-7 -9 -15 -13 -19 -10 -3 3 1 10 9 15 21 14 24 12 10
-5z m2644 -1 c10 -27 7 -36 -9 -20 -8 8 -15 19 -15 25 0 17 17 13 24 -5z
m-1711 -13 c-3 -11 -26 -30 -51 -43 -26 -12 -49 -26 -52 -29 -3 -3 -23 -14
-45 -25 -22 -11 -89 -46 -148 -77 -80 -42 -108 -53 -105 -40 4 20 118 89 141
85 4 -1 7 3 7 8 0 6 6 10 14 10 7 0 19 7 26 15 7 9 19 14 27 11 7 -3 13 -1 13
4 0 4 16 14 35 20 19 6 35 16 35 20 0 5 7 6 17 3 11 -4 14 -3 9 6 -5 8 -3 12
5 10 34 -4 49 2 49 21 0 11 6 20 14 20 9 0 12 -7 9 -19z m1527 -3 c0 -12 -3
-18 -7 -14 -11 10 -12 36 -2 36 5 0 9 -10 9 -22z m220 -5 c0 -9 3 -14 6 -10 7
7 78 -29 94 -48 6 -8 18 -11 26 -8 9 3 14 0 12 -8 -3 -12 2 -15 37 -18 8 0 15
-8 15 -16 0 -9 6 -12 15 -9 9 4 15 0 15 -10 0 -16 -35 -23 -42 -8 -1 4 -19 15
-38 26 -116 62 -192 126 -150 126 6 0 10 -7 10 -17z m-1980 -8 c0 -9 -12 -21
-27 -28 -16 -7 -53 -26 -83 -42 -30 -16 -57 -30 -60 -30 -15 -5 -46 -19 -50
-25 -3 -4 -39 -25 -80 -47 -41 -22 -133 -73 -204 -112 -132 -72 -146 -78 -146
-61 0 15 139 100 164 100 7 0 21 9 31 20 10 11 20 18 23 16 2 -3 9 -1 16 5 30
25 94 62 202 117 66 33 133 67 149 76 17 9 31 12 33 6 2 -6 8 -10 14 -10 6 0
8 7 4 15 -3 8 -1 15 4 15 6 0 10 -7 10 -15z m1784 3 c-5 -8 -2 -9 11 -4 19 7
35 -8 35 -34 -1 -13 -2 -13 -13 1 -12 16 -18 19 -37 19 -5 0 -10 7 -10 15 0 8
5 15 11 15 5 0 7 -5 3 -12z m-2484 -13 c-7 -9 -15 -13 -17 -11 -7 7 7 26 19
26 6 0 6 -6 -2 -15z m2325 6 c3 -5 1 -12 -5 -16 -5 -3 -10 1 -10 9 0 18 6 21
15 7z m41 -38 c-7 -7 -26 7 -26 19 0 6 6 6 15 -2 9 -7 13 -15 11 -17z m194 0
c0 -15 2 -16 10 -3 7 11 10 11 10 2 0 -7 4 -11 9 -8 5 3 12 -1 15 -10 3 -8 10
-12 16 -9 5 3 10 1 10 -5 0 -6 4 -9 9 -6 5 3 11 -1 15 -9 3 -8 12 -12 21 -9 8
3 15 1 15 -5 0 -6 6 -11 14 -11 18 0 116 -60 116 -71 0 -16 -18 -18 -44 -6
-14 7 -26 16 -26 20 0 5 -4 6 -9 3 -5 -3 -14 1 -21 9 -7 8 -16 15 -21 15 -5 0
-32 15 -62 33 -29 17 -61 37 -72 43 -22 12 -33 44 -16 44 6 0 11 -8 11 -17z
m-2555 -3 c-3 -5 -11 -10 -16 -10 -6 0 -7 5 -4 10 3 6 11 10 16 10 6 0 7 -4 4
-10z m2414 -33 c0 -9 -2 -9 -6 1 -2 6 -11 12 -19 12 -8 0 -14 5 -14 10 0 7 6
7 20 0 11 -6 20 -16 19 -23z m-2419 -12 c-7 -9 -15 -13 -17 -11 -7 7 7 26 19
26 6 0 6 -6 -2 -15z m2466 -5 c8 0 14 -7 14 -15 0 -14 -3 -13 -25 1 -14 9 -22
21 -18 27 5 8 8 7 11 -1 2 -7 10 -12 18 -12z m50 -30 c8 0 14 -4 14 -10 0 -5
7 -10 15 -10 8 0 15 -4 15 -10 0 -5 9 -10 20 -10 11 0 20 -4 20 -10 0 -5 7
-10 15 -10 8 0 15 -4 15 -10 0 -5 7 -10 15 -10 8 0 15 -4 15 -8 0 -20 -15 -20
-42 1 -40 29 -78 54 -105 68 -13 7 -23 19 -22 28 0 10 2 12 6 4 2 -7 11 -13
19 -13z m-2516 -5 c-7 -9 -15 -13 -17 -11 -7 7 7 26 19 26 6 0 6 -6 -2 -15z
m2318 -10 c-3 -3 -9 2 -12 12 -6 14 -5 15 5 6 7 -7 10 -15 7 -18z m612 -6 c0
-11 -4 -17 -10 -14 -5 3 -10 13 -10 21 0 8 5 14 10 14 6 0 10 -9 10 -21z m263
-15 c21 -14 37 -30 35 -36 -5 -14 -23 -5 -20 10 2 6 -2 12 -8 12 -5 0 -10 -4
-10 -10 0 -15 -12 -12 -39 9 -13 10 -21 23 -17 30 10 16 17 14 59 -15z m-194
-25 c-20 -13 -29 -11 -29 6 0 9 -6 12 -15 9 -8 -4 -15 -2 -15 3 0 20 13 22 43
7 23 -12 27 -18 16 -25z m-2994 21 c-3 -5 -11 -10 -16 -10 -6 0 -7 5 -4 10 3
6 11 10 16 10 6 0 7 -4 4 -10z m815 -22 c0 -12 -44 -21 -48 -9 -2 6 -8 9 -13
5 -5 -3 -9 -1 -9 4 0 5 16 8 35 8 19 -1 35 -4 35 -8z m796 -26 c-18 -16 -18
-16 -6 6 6 13 14 21 18 18 3 -4 -2 -14 -12 -24z m1434 6 c0 -5 5 -6 10 -3 11
7 24 -18 18 -35 -2 -7 -15 -1 -31 12 -29 25 -37 51 -12 42 8 -4 15 -10 15 -16z
m-3040 8 c0 -2 -7 -7 -16 -10 -8 -3 -12 -2 -9 4 6 10 25 14 25 6z m510 -9 c0
-16 -74 -60 -285 -172 -49 -26 -102 -56 -117 -67 -16 -11 -28 -16 -28 -12 0 5
-5 3 -12 -4 -17 -17 -30 -15 -26 4 3 15 81 62 273 164 50 27 110 60 135 74 51
29 60 31 60 13z m205 3 c-3 -5 -12 -10 -18 -10 -7 0 -6 4 3 10 19 12 23 12 15
0z m2565 -15 c8 5 11 1 8 -10 -4 -23 -28 -32 -28 -11 0 10 -6 13 -15 10 -11
-4 -15 0 -15 16 0 22 1 22 19 6 11 -10 25 -15 31 -11z m-1707 -17 c-8 -14 -19
-8 -20 12 -1 16 1 17 12 7 7 -6 11 -15 8 -19z m-40 -8 c-3 -11 -10 -20 -15
-20 -6 0 -7 7 -4 16 3 9 6 20 6 25 0 6 4 8 9 5 5 -3 7 -15 4 -26z m764 8 c-3
-8 -6 -5 -6 6 -1 11 2 17 5 13 3 -3 4 -12 1 -19z m158 12 c3 -5 1 -10 -4 -10
-6 0 -11 5 -11 10 0 6 2 10 4 10 3 0 8 -4 11 -10z m231 -10 c8 0 14 -5 14 -12
0 -6 3 -8 6 -5 4 4 19 -2 34 -13 16 -11 33 -20 39 -20 6 0 11 -4 11 -10 0 -5
7 -10 15 -10 7 0 18 -8 24 -17 5 -10 12 -17 15 -16 10 5 110 -45 135 -66 14
-12 31 -19 38 -17 7 3 13 2 13 -2 0 -10 79 -58 91 -54 5 1 9 -2 9 -6 0 -5 12
-14 28 -21 15 -7 50 -28 79 -47 28 -19 56 -34 61 -34 5 0 13 -7 16 -16 4 -9
13 -14 21 -10 9 3 15 0 15 -9 0 -9 6 -12 15 -9 8 4 15 1 15 -6 0 -6 5 -8 10
-5 16 10 41 -20 27 -34 -14 -14 -22 -14 -39 2 -8 6 -27 19 -43 28 -89 46 -122
66 -136 81 -9 10 -18 15 -21 12 -7 -6 -58 17 -58 27 0 4 -9 11 -20 14 -11 3
-20 14 -20 23 0 14 -2 14 -9 3 -7 -11 -11 -9 -21 9 -8 15 -15 19 -19 11 -5 -8
-14 -5 -28 8 -11 11 -23 17 -27 14 -3 -3 -8 2 -12 11 -3 9 -10 13 -15 10 -5
-3 -9 0 -9 5 0 6 -5 11 -12 11 -16 0 -158 90 -158 100 0 5 -7 7 -15 4 -8 -4
-15 -1 -15 5 0 6 -7 11 -15 11 -8 0 -15 5 -15 10 0 6 -7 10 -15 10 -8 0 -15 5
-15 11 0 5 -4 8 -9 4 -13 -7 -24 12 -15 27 6 9 9 9 12 0 2 -7 10 -12 18 -12z
m-2696 -5 c-7 -9 -15 -13 -19 -10 -3 3 1 10 9 15 21 14 24 12 10 -5z m2494 0
c3 -8 1 -15 -4 -15 -6 0 -10 7 -10 15 0 8 2 15 4 15 2 0 6 -7 10 -15z m616 0
c0 -9 6 -12 15 -9 10 4 15 0 15 -15 0 -12 -4 -21 -10 -21 -5 0 -10 5 -10 10 0
6 -7 10 -15 10 -8 0 -15 9 -15 20 0 11 5 20 10 20 6 0 10 -7 10 -15z m-2410
-4 c0 -5 -7 -11 -15 -15 -15 -5 -20 5 -8 17 9 10 23 9 23 -2z m810 -7 c0 -8
-6 -22 -14 -30 -13 -12 -14 -10 -11 13 2 16 4 29 4 31 3 10 21 -1 21 -14z
m895 -36 c90 -53 105 -64 105 -75 0 -14 -16 -18 -22 -5 -1 4 -24 20 -50 35
-27 15 -48 31 -48 35 0 4 -13 16 -30 25 -16 10 -30 23 -30 29 0 6 8 4 18 -4 9
-9 35 -27 57 -40z m953 21 c2 -5 10 -9 18 -9 9 0 12 -5 8 -12 -5 -8 -2 -9 9
-5 10 3 17 2 17 -2 0 -5 20 -17 45 -28 32 -13 43 -22 39 -33 -4 -11 -2 -12 6
-4 9 9 22 6 52 -8 38 -18 39 -21 24 -36 -15 -15 -18 -15 -26 -2 -5 8 -10 11
-10 5 0 -5 -6 -3 -13 5 -7 8 -21 17 -32 18 -11 2 -22 8 -23 13 -2 5 -8 7 -13
3 -5 -3 -9 1 -9 8 0 8 -10 14 -21 15 -12 1 -31 11 -43 22 -12 11 -36 26 -54
32 -41 14 -45 44 -4 34 15 -3 29 -11 30 -16z m-1897 -32 c-8 -8 -11 -5 -11 9
0 27 14 41 18 19 2 -9 -1 -22 -7 -28z m1725 20 c8 3 14 0 14 -6 0 -6 7 -11 15
-11 8 0 15 -8 15 -17 0 -12 3 -14 11 -6 8 8 16 6 30 -8 39 -39 7 -37 -53 2
-75 48 -72 45 -62 61 7 10 9 9 12 -4 2 -10 9 -15 18 -11z m-2546 0 c-14 -8
-27 -12 -30 -10 -7 6 23 23 40 23 8 0 4 -6 -10 -13z m1984 -30 c8 4 8 2 0 -6
-8 -8 -21 -6 -52 11 -23 13 -42 26 -42 30 0 4 19 -4 42 -17 23 -13 47 -21 52
-18z m-2624 29 c0 -3 -4 -8 -10 -11 -5 -3 -10 -1 -10 4 0 6 5 11 10 11 6 0 10
-2 10 -4z m570 -11 c-7 -9 -15 -13 -17 -11 -7 7 7 26 19 26 6 0 6 -6 -2 -15z
m863 -15 c-3 -11 -9 -20 -14 -20 -10 0 -12 24 -2 33 13 13 21 7 16 -13z
m-1433 -15 c-7 -9 -15 -13 -17 -11 -6 6 20 36 26 30 2 -2 -2 -10 -9 -19z m590
15 c0 -5 -5 -10 -11 -10 -5 0 -7 5 -4 10 3 6 8 10 11 10 2 0 4 -4 4 -10z m807
-12 c-2 -12 -10 -24 -18 -26 -8 -3 -21 -11 -30 -19 -15 -13 -17 -12 -15 10 1
19 6 24 23 22 14 -1 23 4 26 16 7 26 18 24 14 -3z m458 12 c-3 -5 -11 -10 -16
-10 -6 0 -7 5 -4 10 3 6 11 10 16 10 6 0 7 -4 4 -10z m-1324 -33 c-8 -8 -11
-8 -11 2 0 7 -5 9 -10 6 -6 -4 -8 -10 -5 -15 3 -5 -9 -16 -27 -24 -25 -13 -33
-14 -40 -4 -6 10 -8 10 -8 -1 0 -13 -28 -40 -42 -41 -4 0 -5 7 -2 15 3 8 9 13
12 12 4 -1 7 2 7 6 0 12 54 39 65 32 5 -3 15 3 22 13 15 22 41 33 47 20 2 -6
-2 -15 -8 -21z m1359 23 c0 -5 -2 -10 -4 -10 -2 0 -12 -3 -22 -7 -16 -6 -17
-5 -4 10 17 19 30 22 30 7z m-78 -25 c-2 -14 -8 -25 -13 -25 -5 0 -6 7 -3 15
4 9 0 15 -7 16 -8 0 -5 4 6 9 11 5 21 9 21 9 1 1 -1 -10 -4 -24z m-697 -26
c-6 -15 -88 -69 -105 -69 -6 0 -10 -4 -10 -9 0 -5 -10 -13 -21 -16 -12 -4 -69
-35 -128 -69 -58 -33 -119 -68 -136 -76 -16 -8 -32 -17 -35 -21 -3 -3 -39 -23
-80 -44 -160 -83 -181 -94 -342 -188 -54 -31 -100 -57 -103 -57 -17 0 0 28 23
38 25 11 105 59 149 89 60 42 95 63 103 63 6 0 10 5 10 11 0 5 4 8 9 5 5 -4
11 -3 13 1 4 10 80 47 91 45 4 -1 7 3 7 9 0 5 5 7 10 4 6 -3 10 -2 10 3 0 5 8
13 18 16 9 3 26 12 37 19 29 18 99 55 108 56 4 1 16 10 28 22 18 18 60 40 94
50 6 2 19 11 29 21 10 9 22 15 26 13 4 -3 19 7 34 22 14 14 29 23 32 20 3 -3
13 1 22 9 10 8 22 15 27 15 6 1 19 6 30 12 11 6 26 10 32 9 8 -2 10 4 6 15 -4
13 -3 15 6 7 6 -6 9 -17 6 -25z m203 6 c-1 -14 -6 -25 -11 -25 -4 0 -21 -10
-38 -22 -26 -19 -31 -20 -39 -8 -8 12 -10 11 -10 -5 0 -13 -13 -26 -37 -37
-37 -18 -63 -15 -30 3 9 6 17 17 17 24 0 8 5 15 11 15 5 0 7 -4 4 -10 -3 -5 0
-7 9 -4 9 3 12 12 9 21 -4 11 -2 14 5 9 7 -4 12 -1 13 6 0 10 2 10 6 1 7 -19
23 -16 24 5 0 10 3 12 6 5 6 -16 53 13 53 33 0 8 2 14 5 14 3 0 4 -11 3 -25z
m422 -20 c-6 -15 -13 -26 -16 -23 -2 3 0 18 6 33 6 15 13 26 16 23 2 -3 0 -18
-6 -33z m36 10 c-3 -9 -11 -13 -16 -10 -8 5 -7 11 1 21 14 18 24 11 15 -11z
m-1771 5 c-3 -5 -10 -10 -16 -10 -5 0 -9 5 -9 10 0 6 7 10 16 10 8 0 12 -4 9
-10z m1700 -28 c-23 -37 -263 -171 -284 -157 -15 9 -14 26 2 24 20 -4 77 12
77 22 0 5 -5 9 -11 9 -5 0 -7 5 -3 12 5 8 9 9 11 1 4 -12 63 6 63 19 0 4 8 8
18 8 28 0 81 29 78 43 -1 7 -1 9 1 5 7 -13 25 -9 21 4 -4 12 33 50 40 43 2 -2
-4 -17 -13 -33z m-208 -4 c-16 -10 -21 -2 -13 19 6 15 9 15 16 3 6 -9 5 -17
-3 -22z m1051 14 c2 -7 -2 -10 -12 -6 -9 3 -16 11 -16 16 0 13 23 5 28 -10z
m-158 -12 c0 -5 -5 -10 -11 -10 -5 0 -7 5 -4 10 3 6 8 10 11 10 2 0 4 -4 4
-10z m240 -30 c5 -5 62 -37 97 -54 13 -6 23 -15 23 -21 0 -5 5 -3 10 5 8 13
10 13 10 -2 0 -10 10 -20 25 -24 14 -3 25 -9 25 -14 0 -4 18 -15 40 -25 22
-10 40 -23 40 -28 0 -6 3 -8 6 -4 4 3 13 -1 21 -9 8 -8 19 -12 24 -9 5 4 9 2
9 -4 0 -6 11 -13 25 -17 14 -3 25 -10 25 -15 0 -5 3 -8 8 -8 29 5 64 -23 56
-44 -5 -15 -8 -15 -32 1 -15 9 -29 19 -32 23 -3 3 -63 39 -135 80 -71 40 -132
76 -135 80 -3 3 -21 14 -40 24 -19 10 -37 21 -40 24 -3 4 -26 20 -52 36 -54
34 -65 53 -16 27 18 -9 35 -19 38 -22z m-2620 21 c0 -12 -20 -25 -27 -18 -7 7
6 27 18 27 5 0 9 -4 9 -9z m351 -24 c-8 -8 -11 -7 -11 4 0 20 13 34 18 19 3
-7 -1 -17 -7 -23z m1103 19 c-3 -7 -16 -18 -30 -24 -20 -10 -24 -9 -24 4 0 10
6 14 15 10 9 -3 18 1 21 9 4 8 10 15 15 15 4 0 6 -6 3 -14z m2156 2 c0 -6 3
-9 6 -5 6 5 14 0 47 -29 7 -6 18 -9 25 -6 17 5 15 -13 -3 -28 -8 -7 -15 -8
-15 -3 0 5 -22 17 -50 28 -47 18 -59 32 -43 48 11 11 33 8 33 -5z m-1980 -8
c0 -5 -2 -10 -4 -10 -3 0 -8 5 -11 10 -3 6 -1 10 4 10 6 0 11 -4 11 -10z m803
-10 c-3 -11 -9 -17 -15 -14 -5 3 -4 12 3 20 16 19 18 18 12 -6z m-2103 -10 c0
-4 -7 -11 -16 -14 -13 -5 -14 -4 -6 7 7 8 8 18 4 22 -4 5 -1 5 6 1 6 -4 12
-11 12 -16z m820 1 c0 -5 -9 -12 -19 -16 -11 -3 -18 -12 -15 -20 6 -16 -12
-30 -21 -15 -3 5 6 21 21 35 30 27 34 30 34 16z m-860 -16 c0 -8 -4 -15 -10
-15 -5 0 -7 7 -4 15 4 8 8 15 10 15 2 0 4 -7 4 -15z m440 -4 c0 -15 -174 -116
-393 -229 -69 -36 -82 -37 -71 -8 6 16 64 53 64 41 0 -4 7 1 16 9 8 9 20 14
25 11 5 -4 9 -1 9 4 0 6 15 17 33 26 68 31 242 128 249 139 4 6 8 7 8 2 0 -5
6 -3 13 3 8 6 17 8 20 4 4 -3 7 -1 7 6 0 7 5 9 10 6 6 -3 10 -10 10 -14z m655
10 c3 -5 1 -12 -5 -16 -5 -3 -10 1 -10 9 0 18 6 21 15 7z m1091 -7 c-9 -6 -13
-14 -9 -17 3 -4 1 -7 -5 -7 -13 0 -25 17 -18 28 2 4 14 8 26 8 18 0 19 -2 6
-12z m-2486 -9 c-7 -9 -15 -13 -17 -11 -7 7 7 26 19 26 6 0 6 -6 -2 -15z m247
-19 c-3 -8 -20 -22 -36 -31 -28 -14 -31 -14 -31 0 0 8 4 14 9 13 5 -2 17 6 25
17 15 19 16 19 9 1 -4 -13 -3 -17 5 -12 7 4 12 14 12 23 0 9 3 14 6 10 4 -3 4
-13 1 -21z m1107 4 c-17 -17 -84 -48 -84 -40 0 5 9 12 20 15 11 3 20 10 20 15
0 5 6 7 14 4 7 -3 16 3 20 12 4 9 9 14 13 10 4 -3 2 -11 -3 -16z m2393 -5 c12
-8 29 -12 38 -9 12 5 16 2 13 -12 -2 -13 3 -19 15 -18 9 1 17 -2 17 -7 0 -5 6
-7 13 -5 6 1 9 1 5 -1 -5 -3 -8 -12 -8 -21 0 -12 3 -13 12 -4 18 18 27 15 21
-7 -5 -21 -41 -18 -50 5 -3 8 -9 11 -14 8 -5 -3 -12 1 -15 10 -3 8 -12 12 -20
9 -8 -3 -14 0 -14 6 0 6 -7 11 -15 11 -8 0 -15 5 -15 10 0 6 -4 9 -9 8 -5 -2
-9 0 -10 5 -4 31 4 34 36 12z m-2657 -9 c0 -8 -4 -18 -10 -21 -5 -3 -10 3 -10
14 0 12 5 21 10 21 6 0 10 -6 10 -14z m-1080 0 c0 -2 -7 -7 -16 -10 -8 -3 -12
-2 -9 4 6 10 25 14 25 6z m157 -38 c-3 -8 -6 -5 -6 6 -1 11 2 17 5 13 3 -3 4
-12 1 -19z m865 -17 c-13 -9 -57 -34 -98 -56 -41 -21 -77 -42 -80 -46 -10 -16
-24 -9 -24 12 0 11 5 17 10 14 6 -3 10 -2 10 3 0 5 14 15 30 22 17 7 30 16 30
21 0 5 8 9 18 9 9 0 37 13 62 30 30 20 48 26 55 19 7 -7 3 -16 -13 -28z m-885
15 c0 -8 -11 -19 -24 -25 -19 -9 -23 -8 -23 5 0 10 6 14 15 10 9 -3 15 0 15 9
0 8 4 15 8 15 5 0 9 -6 9 -14z m253 4 c0 -6 -17 -18 -37 -28 -21 -9 -44 -23
-51 -29 -7 -7 -20 -13 -28 -13 -8 0 -14 -4 -14 -8 0 -4 -19 -18 -42 -31 -24
-12 -68 -35 -97 -51 -40 -22 -57 -27 -62 -18 -9 13 7 38 24 38 14 0 120 53
128 64 4 4 9 2 12 -5 4 -10 6 -8 6 4 1 10 5 16 10 13 5 -4 11 -3 13 1 2 6 126
72 136 73 1 0 2 -5 2 -10z m827 -10 c1 -11 -2 -20 -8 -20 -5 0 -9 9 -9 20 0
11 4 20 8 20 4 0 8 -9 9 -20z m-1227 0 c0 -5 -8 -10 -17 -10 -15 0 -16 2 -3
10 19 12 20 12 20 0z m1186 -15 c-9 -9 -16 -13 -16 -8 0 12 22 34 28 28 2 -2
-3 -11 -12 -20z m-1100 -22 c-6 -15 -9 -15 -16 -3 -6 9 -5 17 3 22 16 10 21 2
13 -19z m1324 12 c0 -5 -9 -10 -20 -9 -10 0 -18 -4 -17 -10 1 -6 -6 -10 -15
-10 -10 1 -16 -2 -13 -6 6 -10 -24 -22 -36 -14 -5 3 -8 0 -7 -8 2 -7 -5 -12
-15 -11 -10 0 -16 -2 -13 -5 7 -6 -92 -64 -111 -65 -7 0 -13 -4 -13 -9 0 -4
-7 -8 -15 -8 -8 0 -15 -4 -15 -9 0 -8 -110 -71 -124 -71 -3 0 -6 7 -6 15 0 9
6 12 17 8 12 -5 15 -2 10 10 -5 13 -1 17 16 18 12 1 25 1 30 0 4 0 7 3 7 8 0
11 62 52 153 101 40 21 92 50 117 64 45 26 72 30 70 11z m-270 -23 c0 -11 -11
-24 -25 -30 -33 -15 -35 -15 -35 4 0 10 6 14 14 11 10 -4 13 -1 10 8 -3 7 2
15 13 18 10 3 19 5 21 6 1 0 2 -7 2 -17z m-70 -40 c0 -20 -132 -102 -163 -102
-10 0 -20 -7 -23 -15 -6 -16 -72 -58 -91 -58 -7 0 -13 -4 -13 -9 0 -4 -5 -8
-12 -8 -6 0 -19 -6 -27 -14 -9 -8 -23 -16 -31 -18 -8 -2 -21 -9 -28 -15 -18
-17 -27 -16 -43 3 -12 15 -11 16 10 9 15 -4 21 -4 17 3 -3 6 7 13 23 17 16 3
32 13 35 21 3 8 12 14 19 14 8 0 24 9 37 20 12 11 26 17 30 15 4 -3 11 2 14
11 4 9 13 14 21 10 9 -3 15 0 15 9 0 8 7 15 15 15 8 0 15 4 15 10 0 5 7 6 17
3 10 -4 14 -2 9 5 -3 6 -2 13 4 17 5 3 10 1 10 -4 0 -6 5 -11 10 -11 6 0 10 6
10 14 0 8 5 18 12 22 7 5 9 2 4 -7 -4 -8 -1 -6 7 4 15 18 32 24 22 7 -3 -6 1
-7 10 -4 9 4 13 9 10 12 -4 4 38 37 53 41 1 1 2 -7 2 -17z m-270 -32 c-10 -6
-9 -9 1 -12 7 -2 -5 -14 -26 -27 -30 -17 -40 -19 -46 -9 -7 10 -9 8 -9 -5 0
-10 -8 -21 -17 -24 -10 -4 -35 -17 -55 -30 -21 -13 -38 -19 -38 -15 0 5 12 14
26 20 14 7 22 17 19 22 -3 6 1 7 9 4 11 -4 16 0 17 12 0 13 2 14 6 5 4 -9 12
-5 29 15 13 16 23 23 24 17 0 -7 4 -13 10 -13 5 0 7 6 4 14 -3 9 3 17 15 21
12 3 21 11 21 16 0 6 5 7 11 3 8 -5 8 -9 -1 -14z m-540 -70 c0 -5 -5 -10 -11
-10 -5 0 -7 5 -4 10 3 6 8 10 11 10 2 0 4 -4 4 -10z m379 -14 c-2 -2 -15 -9
-29 -15 -24 -11 -24 -11 -6 3 16 13 49 24 35 12z m-469 -34 c0 -10 -91 -55
-97 -48 -3 3 17 16 43 29 27 13 50 25 52 26 1 0 2 -3 2 -7z m420 -18 c-15 -18
-27 -18 -27 -1 0 7 9 14 19 14 16 2 17 -1 8 -13z m-51 -27 c-2 -2 -39 -22 -81
-45 -70 -38 -77 -40 -75 -21 1 14 7 19 20 15 10 -2 27 4 38 15 10 10 21 19 24
19 29 0 38 2 27 7 -13 5 -7 23 9 23 6 0 7 -5 3 -11 -4 -7 -1 -10 7 -7 8 3 13
12 11 19 -3 11 -1 11 9 2 7 -7 11 -14 8 -16z m426 4 c-6 -5 -38 -24 -73 -42
-93 -50 -100 -54 -120 -72 -23 -21 -32 -21 -32 -2 0 8 3 14 8 13 9 -2 59 27
123 72 28 20 62 37 77 38 16 1 22 -1 17 -7z m-955 -9 c0 -13 -12 -22 -22 -16
-10 6 -1 24 13 24 5 0 9 -4 9 -8z m0 -52 c0 -5 -7 -10 -15 -10 -8 0 -15 5 -15
10 0 6 7 10 15 10 8 0 15 -4 15 -10z m628 -2 c-3 -7 -11 -13 -18 -13 -7 0 -15
6 -17 13 -3 7 4 12 17 12 13 0 20 -5 18 -12z m-268 -22 c0 -14 -29 -31 -37
-22 -6 6 19 35 30 36 4 0 7 -6 7 -14z m220 -6 c0 -5 -7 -7 -15 -4 -8 4 -12 10
-9 15 6 11 24 2 24 -11z m-580 -20 c0 -5 -7 -10 -15 -10 -8 0 -15 5 -15 10 0
6 7 10 15 10 8 0 15 -4 15 -10z m555 0 c-3 -5 -11 -10 -16 -10 -6 0 -7 5 -4
10 3 6 11 10 16 10 6 0 7 -4 4 -10z m-45 -15 c0 -8 -13 -21 -30 -30 -34 -17
-44 -19 -35 -5 3 6 0 10 -7 10 -8 0 -6 5 5 11 10 6 25 8 32 5 8 -3 17 -1 20 4
3 4 -1 11 -7 13 -8 3 -6 6 5 6 9 1 17 -6 17 -14z m204 -10 c-4 -8 -10 -15 -15
-15 -5 0 -9 7 -9 15 0 8 7 15 15 15 9 0 12 -6 9 -15z m-714 -26 c0 -5 -9 -9
-20 -9 -17 0 -19 2 -8 14 13 14 28 12 28 -5z m680 6 c0 -3 -10 -10 -22 -15
-31 -13 -61 -33 -70 -45 -8 -10 -28 11 -28 30 0 6 5 3 10 -5 8 -13 11 -12 24
5 9 11 16 17 16 13 0 -4 12 0 28 8 28 15 42 18 42 9z m-250 -18 c0 -7 -16 -21
-35 -30 -36 -17 -47 -7 -21 19 11 10 15 11 19 1 3 -8 7 -6 12 6 8 20 25 23 25
4z m-435 -37 c-3 -5 -10 -10 -16 -10 -5 0 -9 5 -9 10 0 6 7 10 16 10 8 0 12
-4 9 -10z m352 -6 c0 -8 -13 -22 -29 -30 -25 -13 -28 -13 -28 0 0 19 20 32 21
14 0 -7 4 -3 9 10 11 25 27 29 27 6z m211 -6 c-3 -7 -10 -13 -15 -13 -6 0 -15
-3 -19 -7 -10 -10 -24 -10 -24 0 0 7 36 28 53 31 5 0 7 -5 5 -11z m-278 -29
c0 -12 -29 -38 -42 -39 -5 0 -8 7 -8 16 0 10 6 14 15 10 9 -3 15 0 15 9 0 8 5
15 10 15 6 0 10 -5 10 -11z m220 -7 c0 -6 -58 -33 -68 -32 -1 1 -10 -6 -18
-15 -9 -8 -21 -15 -29 -15 -7 0 -15 -6 -18 -12 -2 -7 -8 -9 -13 -5 -5 5 -1 13
8 18 9 5 23 16 31 23 8 8 22 16 33 18 10 2 26 11 36 21 17 16 38 16 38 -1z
m-500 -1 c0 -14 -18 -23 -30 -16 -6 4 -8 11 -5 16 8 12 35 12 35 0z m220 -25
c0 -8 -4 -17 -9 -20 -10 -7 -23 19 -14 28 11 11 23 6 23 -8z m-30 -22 c0 -11
-6 -14 -20 -9 -16 5 -19 3 -13 -11 5 -14 2 -16 -23 -11 -16 3 -23 4 -16 1 18
-8 4 -24 -15 -17 -10 4 -14 2 -10 -4 4 -6 -5 -18 -19 -28 -25 -16 -26 -16 -22
6 2 15 22 33 63 55 68 38 75 40 75 18z m-195 -3 c7 -12 -12 -24 -25 -16 -11 7
-4 25 10 25 5 0 11 -4 15 -9z m345 -29 c0 -15 -11 -21 -27 -15 -12 5 -12 7 -1
14 17 11 28 11 28 1z m-348 -19 c-6 -2 -10 -9 -6 -14 3 -5 0 -9 -5 -9 -6 0
-11 7 -11 15 0 8 8 15 18 14 10 0 12 -3 4 -6z m310 -15 c-9 -9 -15 -9 -24 0
-9 9 -7 12 12 12 19 0 21 -3 12 -12z m-39 -18 c-4 -5 -39 -25 -78 -45 -38 -21
-82 -46 -98 -57 -37 -26 -57 -18 -27 10 13 12 30 22 37 22 7 0 13 4 13 8 0 5
16 14 35 22 19 8 35 17 35 21 0 6 27 18 52 23 3 0 10 4 14 8 4 4 11 5 16 2 5
-4 6 -10 1 -14z m-265 -22 c-6 -18 -28 -21 -28 -4 0 9 7 16 16 16 9 0 14 -5
12 -12z m2 -53 c0 -8 -7 -15 -15 -15 -8 0 -15 7 -15 15 0 8 7 15 15 15 8 0 15
-7 15 -15z m0 -50 c0 -8 -7 -15 -15 -15 -8 0 -15 7 -15 15 0 8 7 15 15 15 8 0
15 -7 15 -15z m0 -45 c0 -5 -7 -10 -15 -10 -8 0 -15 5 -15 10 0 6 7 10 15 10
8 0 15 -4 15 -10z m130 -24 c0 -18 -70 -50 -83 -37 -6 6 -7 14 -3 18 4 4 12 1
17 -7 9 -13 10 -12 5 2 -3 10 -1 20 4 23 6 4 10 0 11 -7 0 -10 2 -10 6 0 2 6
9 10 14 6 5 -3 9 2 9 11 0 9 5 13 10 10 6 -3 10 -12 10 -19z m30 14 c0 -5 -4
-10 -10 -10 -5 0 -10 5 -10 10 0 6 5 10 10 10 6 0 10 -4 10 -10z m-160 -30 c0
-5 -7 -10 -15 -10 -8 0 -15 5 -15 10 0 6 7 10 15 10 8 0 15 -4 15 -10z m0 -40
c0 -5 -7 -10 -16 -10 -8 0 -12 5 -9 10 3 6 10 10 16 10 5 0 9 -4 9 -10z m210
-10 c0 -11 -7 -20 -15 -20 -8 0 -15 -4 -15 -8 0 -14 -99 -64 -112 -56 -7 5 -8
3 -3 -6 5 -8 3 -11 -5 -8 -26 8 -21 27 10 43 17 9 35 13 40 10 6 -3 10 2 10
12 0 15 2 16 10 3 8 -13 10 -12 10 4 0 12 5 16 16 12 10 -4 13 -2 8 6 -5 8 -2
9 9 5 11 -4 17 -1 17 8 0 8 5 15 10 15 6 0 10 -9 10 -20z m-213 -36 c-3 -3
-12 -4 -19 -1 -8 3 -5 6 6 6 11 1 17 -2 13 -5z m1 -96 c-6 -18 -28 -21 -28 -4
0 9 7 16 16 16 9 0 14 -5 12 -12z m-18 -188 c0 -5 -4 -10 -10 -10 -5 0 -10 5
-10 10 0 6 5 10 10 10 6 0 10 -4 10 -10z m10 -129 c0 -6 -4 -13 -10 -16 -5 -3
-10 1 -10 9 0 9 5 16 10 16 6 0 10 -4 10 -9z m4528 -454 c34 -19 52 -35 52
-48 0 -26 -16 -23 -80 15 -36 21 -56 40 -58 54 -4 26 6 23 86 -21z m-2273
-547 c-3 -5 -12 -10 -18 -10 -7 0 -6 4 3 10 19 12 23 12 15 0z m45 -1155 c-7
-8 -18 -15 -24 -15 -6 0 -2 7 8 15 25 19 32 19 16 0z"/>
<path d="M5885 8310 c3 -5 8 -10 11 -10 2 0 4 5 4 10 0 6 -5 10 -11 10 -5 0
-7 -4 -4 -10z"/>
<path d="M3674 7695 c-18 -13 -18 -14 4 -8 12 3 25 9 28 14 8 14 -10 11 -32
-6z"/>
<path d="M3614 7665 c-18 -13 -18 -14 4 -8 12 3 25 9 28 14 8 14 -10 11 -32
-6z"/>
<path d="M5795 7430 c3 -5 8 -10 11 -10 2 0 4 5 4 10 0 6 -5 10 -11 10 -5 0
-7 -4 -4 -10z"/>
<path d="M3616 7423 c-6 -14 -5 -15 5 -6 7 7 10 15 7 18 -3 3 -9 -2 -12 -12z"/>
<path d="M3490 6879 c0 -5 5 -7 10 -4 6 3 10 8 10 11 0 2 -4 4 -10 4 -5 0 -10
-5 -10 -11z"/>
<path d="M4095 8730 c-3 -5 -2 -10 4 -10 5 0 13 5 16 10 3 6 2 10 -4 10 -5 0
-13 -4 -16 -10z"/>
<path d="M4005 8679 c-16 -10 -25 -19 -19 -19 7 0 22 9 35 20 30 24 23 24 -16
-1z"/>
<path d="M3930 8640 c-9 -6 -10 -10 -3 -10 6 0 15 5 18 10 8 12 4 12 -15 0z"/>
<path d="M3830 8382 c0 -13 -57 -42 -65 -34 -5 4 -5 1 -1 -5 5 -10 17 -8 49 8
52 27 51 25 32 32 -8 4 -15 3 -15 -1z"/>
<path d="M6013 6351 c-21 -25 -79 -65 -175 -118 -398 -223 -576 -319 -622
-336 -47 -17 -48 -18 -13 -13 39 5 177 77 564 294 128 72 228 122 225 113 -11
-26 -36 -61 -44 -61 -5 0 -16 -7 -25 -15 -22 -19 -154 -105 -161 -105 -3 0
-19 -10 -36 -23 -43 -32 -131 -77 -149 -77 -8 0 -20 -7 -27 -15 -7 -8 -25 -15
-41 -15 -15 0 -34 -7 -43 -15 -8 -8 -19 -15 -25 -15 -5 0 -17 -10 -25 -22 -9
-12 -16 -18 -16 -13 0 6 -3 6 -8 0 -8 -12 -105 -75 -115 -75 -4 0 -15 -8 -25
-17 -10 -10 -31 -28 -46 -41 -19 -16 -26 -30 -23 -43 11 -43 -95 -52 -183 -16
-30 13 -183 95 -340 184 -373 210 -415 233 -425 233 -25 0 40 -43 214 -141
108 -62 278 -158 378 -216 326 -187 349 -190 571 -78 75 38 162 83 192 100 30
18 160 90 289 161 128 71 240 139 249 152 19 29 3 69 -38 97 -32 21 -39 42
-42 123 -1 28 -2 52 -3 52 0 0 -14 -18 -32 -39z"/>
<path d="M6445 6118 c-21 -32 -52 -50 -510 -303 -132 -72 -337 -187 -455 -255
-118 -67 -235 -131 -260 -141 -27 -12 -34 -17 -17 -14 30 6 166 71 223 105 18
12 34 17 34 11 0 -11 -40 -38 -110 -77 -92 -50 -190 -144 -190 -181 0 -21 -4
-23 -62 -23 -72 0 -113 17 -298 122 -104 60 -321 182 -761 429 -86 48 -176 97
-200 109 l-44 21 25 -22 c14 -12 79 -53 145 -92 66 -38 172 -101 236 -138 63
-37 156 -89 205 -115 49 -26 163 -90 253 -141 241 -140 260 -150 332 -187 162
-85 263 -83 405 7 22 13 172 95 334 182 162 86 300 161 305 165 6 4 39 23 75
42 75 41 280 156 358 202 29 17 64 42 77 57 22 22 24 29 14 57 -6 17 -27 43
-47 58 -52 39 -53 43 -47 102 4 28 5 52 3 52 -2 -1 -12 -15 -23 -32z m-941
-583 c-10 -8 -23 -14 -29 -14 -5 -1 1 8 15 19 14 10 27 17 29 14 3 -2 -4 -11
-15 -19z"/>
<path d="M7965 4110 c-20 -38 -62 -66 -295 -195 -316 -174 -1231 -686 -1485
-830 -60 -35 -171 -95 -245 -135 -74 -40 -200 -110 -280 -155 -405 -230 -417
-236 -490 -248 -22 -4 -21 -4 6 -6 17 0 55 7 85 16 30 9 60 16 67 14 6 -1 12
3 12 9 0 6 5 8 11 4 6 -3 -5 -16 -28 -29 -21 -13 -39 -28 -39 -34 -1 -6 -3
-13 -4 -16 -5 -10 -14 -55 -25 -128 l-5 -27 51 26 c28 14 48 21 45 16 -3 -5
-36 -24 -73 -43 -61 -31 -76 -34 -154 -34 -80 0 -89 2 -140 34 -30 19 -115 68
-189 109 -74 41 -193 108 -265 150 -242 140 -399 229 -580 327 -232 126 -247
135 -455 250 -365 202 -562 312 -770 430 -118 67 -224 125 -236 129 -15 4 -28
-3 -51 -26 -16 -18 -33 -41 -36 -50 -6 -18 -140 -95 -351 -203 -75 -38 -130
-72 -121 -73 21 -5 175 69 422 204 105 57 194 104 197 104 3 0 6 -6 6 -13 0
-13 178 -127 199 -127 25 0 8 -23 -39 -52 -27 -17 -50 -38 -50 -47 0 -14 -2
-14 -10 -1 -8 12 -10 12 -10 -5 0 -22 -68 -64 -278 -173 -62 -32 -110 -61
-106 -64 10 -11 62 13 336 155 l266 137 111 -68 111 -69 -43 -30 c-23 -16 -68
-44 -99 -62 -53 -30 -70 -43 -50 -40 19 3 33 -2 27 -11 -3 -5 -17 -10 -30 -10
-13 0 -28 -6 -32 -14 -9 -16 -159 -99 -243 -133 l-55 -23 38 0 c27 0 72 17
152 58 63 31 115 62 115 67 0 6 4 16 9 24 8 12 16 10 50 -12 57 -38 71 -36 69
11 0 22 2 43 5 49 3 5 44 26 91 47 l85 38 60 -38 c34 -22 82 -51 107 -65 l46
-26 -46 -32 c-25 -18 -60 -37 -76 -43 -23 -7 -30 -16 -30 -35 0 -19 4 -24 16
-19 8 3 12 2 9 -4 -3 -6 -12 -10 -20 -10 -26 0 -28 -23 -4 -41 40 -31 60 -25
57 16 -1 19 0 36 2 39 3 2 44 22 93 44 l87 41 63 -40 c34 -21 79 -48 101 -60
38 -20 38 -21 20 -39 -11 -11 -44 -33 -74 -49 -30 -17 -47 -31 -37 -31 10 0
15 -5 12 -10 -3 -5 -1 -10 5 -10 6 0 -2 -11 -17 -24 -22 -19 -31 -22 -43 -13
-8 6 -6 1 5 -12 17 -20 71 -51 89 -51 3 0 1 14 -4 31 -5 16 -6 37 -3 45 3 8
42 33 88 55 l82 41 44 -23 c24 -12 73 -40 107 -63 72 -46 73 -39 -21 -97 -42
-25 -46 -32 -37 -49 8 -16 6 -21 -12 -32 -13 -7 -27 -11 -32 -10 -4 2 5 -11
21 -27 42 -42 73 -34 66 17 l-5 37 84 41 c53 26 87 38 93 32 6 -5 50 -31 98
-56 48 -26 88 -51 89 -57 1 -5 -29 -27 -65 -48 -66 -38 -67 -38 -50 -63 17
-27 17 -26 -11 -41 -17 -9 -16 -12 13 -32 39 -28 53 -21 39 20 -6 16 -9 32 -7
33 10 9 170 86 178 86 6 0 53 -28 105 -62 106 -68 106 -69 29 -113 -24 -15
-42 -29 -39 -32 3 -3 -2 -11 -11 -18 -19 -14 -25 -52 -9 -63 6 -5 23 -13 39
-20 l27 -12 -6 40 -7 40 86 40 85 40 54 -32 c29 -18 55 -35 58 -38 3 -4 22
-16 43 -29 20 -12 37 -26 37 -30 0 -4 -22 -20 -50 -35 -59 -32 -69 -45 -32
-39 23 4 25 2 12 -9 -26 -22 -52 -70 -43 -78 4 -5 33 -18 63 -29 l55 -20 -27
20 c-21 15 -28 29 -28 53 0 30 5 35 73 69 82 41 105 45 114 20 21 -58 158
-119 293 -132 l65 -7 -40 -24 c-21 -14 -62 -35 -90 -48 -27 -12 -41 -22 -30
-21 45 3 50 -1 24 -19 -14 -9 -34 -25 -44 -35 -20 -20 -34 -18 -117 24 -32 16
-58 27 -58 24 0 -3 33 -22 73 -41 53 -26 81 -34 104 -30 30 4 335 162 723 374
85 46 182 99 215 117 33 18 164 89 291 159 191 104 238 126 273 126 31 0 72
-16 168 -65 149 -77 143 -77 286 -2 88 46 97 54 97 80 0 47 -25 44 -146 -16
-111 -55 -127 -70 -102 -95 20 -20 -6 -15 -46 9 -20 12 -33 25 -30 30 3 5 -2
9 -11 9 -8 0 -21 11 -27 25 -8 19 -14 22 -20 13 -6 -10 -8 -9 -8 4 0 9 -16 26
-36 38 -19 13 -32 26 -27 30 4 5 55 34 112 66 73 41 113 58 137 57 22 -1 77
-25 156 -68 144 -80 146 -80 286 -3 73 40 99 60 106 81 7 19 6 31 -2 39 -9 9
-40 -3 -134 -50 -68 -34 -129 -62 -137 -62 -17 0 -191 102 -191 112 0 6 55 37
285 159 44 23 125 66 180 95 98 52 136 63 164 45 9 -6 22 -4 36 5 18 12 23 11
38 -6 9 -11 57 -40 107 -65 l91 -46 107 56 c59 32 113 62 120 67 16 14 15 38
-3 58 -15 16 -21 15 -93 -26 -42 -23 -89 -50 -104 -58 -20 -10 -28 -23 -28
-41 0 -23 -3 -25 -22 -19 -32 9 -106 54 -91 54 20 0 -25 47 -58 60 -16 7 -29
16 -29 20 0 29 197 145 229 135 26 -8 128 40 157 74 12 15 49 39 83 55 59 29
61 31 61 68 0 21 -5 38 -11 38 -6 0 -49 -19 -95 -42 -46 -23 -87 -38 -91 -34
-4 4 3 9 15 13 12 3 22 9 22 13 0 5 14 21 30 37 39 36 38 61 -2 96 -25 21 -6
14 77 -29 110 -56 286 -155 358 -201 47 -29 64 -62 48 -91 -12 -23 -116 -87
-311 -192 -69 -37 -213 -115 -320 -175 -673 -372 -849 -468 -1695 -920 -198
-106 -445 -239 -550 -297 -381 -209 -551 -297 -598 -309 -26 -6 -77 -9 -112
-6 -46 3 -63 1 -58 -6 4 -6 7 -53 7 -104 1 -77 -2 -93 -14 -93 -25 0 -90 34
-930 490 -190 103 -442 239 -560 302 -118 64 -294 158 -390 210 -96 52 -254
137 -350 188 -96 51 -287 154 -425 230 -137 75 -349 190 -470 255 -247 132
-295 162 -312 196 -6 13 -14 82 -16 152 l-4 128 30 28 c16 16 81 57 145 92 65
34 182 99 262 144 80 45 171 96 202 114 57 32 75 48 65 58 -3 2 -124 -60 -269
-140 -145 -79 -353 -193 -463 -253 -110 -59 -274 -149 -365 -199 l-165 -92 -3
-141 -3 -141 68 -36 c163 -87 497 -267 723 -389 135 -73 324 -175 420 -226 96
-51 301 -161 455 -245 154 -84 411 -222 570 -307 1120 -597 1529 -817 1753
-941 155 -86 164 -89 208 -83 49 6 477 219 763 380 85 47 155 86 157 86 2 0
70 35 151 78 81 44 207 109 278 147 72 37 135 71 140 75 6 4 55 31 110 60 232
122 313 165 358 192 26 15 50 28 52 28 2 0 34 17 72 38 37 22 133 73 213 114
369 192 580 303 640 338 36 20 155 84 265 140 110 57 216 113 235 125 19 12
94 52 165 90 156 82 382 206 523 288 108 63 119 78 80 113 -28 24 -96 68 -120
77 -15 5 -18 19 -18 80 l0 73 -155 84 c-180 98 -227 129 -107 70 69 -34 81
-37 72 -21 -6 12 -16 18 -25 15 -8 -3 -20 3 -27 15 -7 12 -18 21 -25 21 -6 0
-15 10 -18 23 -8 26 -97 112 -140 134 -16 9 -45 29 -63 44 -18 16 -41 29 -52
29 -10 0 -22 5 -25 10 -11 18 -163 90 -190 90 -14 0 -25 4 -25 9 0 13 -51 31
-88 29 -18 0 -38 4 -44 10 -7 7 -27 12 -45 12 -18 0 -33 4 -33 9 0 5 -18 11
-40 15 -23 3 -43 13 -46 21 -4 8 -12 15 -19 15 -7 0 -15 5 -17 12 -3 7 -12 9
-23 4 -17 -6 -17 -9 -5 -17 13 -9 13 -10 0 -6 -8 2 -15 8 -15 14 0 12 -53 57
-77 66 -33 12 -18 -9 22 -32 22 -12 40 -25 40 -28 0 -3 -24 9 -52 25 l-53 30
2 56 c1 31 0 56 -2 56 -3 0 -11 -13 -20 -30z m40 -170 c3 -6 -1 -7 -9 -4 -18
7 -21 14 -7 14 6 0 13 -4 16 -10z m175 -16 c0 -2 -9 0 -20 6 -11 6 -20 13 -20
16 0 2 9 0 20 -6 11 -6 20 -13 20 -16z m125 -72 c-3 -3 -11 0 -18 7 -9 10 -8
11 6 5 10 -3 15 -9 12 -12z m-210 -202 c-3 -5 -14 -10 -23 -10 -15 0 -15 2 -2
10 20 13 33 13 25 0z m-260 -330 c3 -6 -1 -7 -9 -4 -18 7 -21 14 -7 14 6 0 13
-4 16 -10z m-6472 -234 c188 -100 459 -245 602 -321 143 -76 339 -182 435
-235 96 -53 229 -125 295 -159 148 -77 356 -189 625 -336 113 -62 315 -170
450 -240 135 -70 250 -131 255 -135 6 -4 96 -54 200 -110 105 -57 235 -129
290 -160 55 -31 172 -94 260 -140 133 -69 338 -183 354 -196 2 -2 2 -6 0 -8
-2 -3 -26 8 -52 25 -25 16 -163 90 -304 165 -142 75 -316 169 -388 209 -350
194 -458 252 -675 365 -129 67 -257 135 -285 150 -98 54 -150 82 -403 219
-141 76 -315 169 -387 206 -71 38 -164 87 -205 110 -212 119 -498 272 -1140
612 -229 122 -299 163 -277 163 4 0 161 -83 350 -184z m356 -23 c2 -2 1 -6 -2
-9 -18 -18 -105 46 -120 88 -5 14 27 -6 122 -79z m467 -253 c32 -16 52 -30 43
-30 -16 0 -109 48 -109 56 0 7 6 5 66 -26z m3209 -200 c3 -5 -1 -10 -10 -10
-9 0 -13 5 -10 10 3 6 8 10 10 10 2 0 7 -4 10 -10z"/>
<path d="M8295 3579 c-27 -16 -43 -29 -35 -29 8 0 38 14 65 30 28 16 43 29 35
29 -8 -1 -37 -14 -65 -30z"/>
<path d="M8418 3529 c-72 -38 -98 -56 -98 -70 0 -18 -3 -18 -49 6 -27 13 -59
39 -72 56 -22 31 -23 32 -31 10 -4 -13 -5 -27 -2 -32 8 -14 161 -89 180 -89
25 0 205 100 211 117 7 19 -9 47 -28 50 -8 2 -58 -20 -111 -48z"/>
<path d="M7946 3387 c-18 -13 -18 -14 0 -14 10 0 25 6 32 14 11 11 11 13 0 13
-8 0 -22 -6 -32 -13z"/>
<path d="M7596 3214 c-4 -9 -13 -14 -21 -10 -8 3 -15 1 -15 -4 0 -15 16 -12
52 10 28 17 30 20 12 20 -12 0 -25 -7 -28 -16z"/>
<path d="M7750 3164 c-67 -38 -97 -61 -103 -79 -10 -30 -25 -31 -69 -6 -132
74 -132 73 -114 83 13 8 15 13 5 24 -20 24 -30 15 -27 -23 3 -36 6 -38 98 -84
52 -26 103 -48 113 -48 17 -1 200 92 241 122 19 14 19 15 -9 41 -15 14 -31 25
-34 25 -3 -1 -49 -25 -101 -55z"/>
<path d="M3085 2938 c-55 -31 -111 -64 -125 -73 l-25 -16 31 5 c16 2 65 25
107 50 43 25 81 46 86 46 12 0 34 28 29 38 -1 4 -48 -18 -103 -50z"/>
<path d="M3419 2789 c-70 -39 -156 -109 -133 -109 20 1 35 8 153 75 70 39 91
65 50 62 -11 -1 -43 -13 -70 -28z"/>
<path d="M6770 2625 c-41 -23 -167 -90 -280 -150 -113 -59 -272 -145 -355
-190 -82 -45 -233 -127 -335 -183 -250 -136 -510 -275 -598 -320 -39 -20 -75
-44 -78 -54 -4 -13 -16 -18 -42 -18 -28 0 -33 -3 -22 -10 8 -5 38 -10 66 -10
56 0 40 -8 339 154 110 60 272 147 360 194 262 139 378 201 620 332 127 68
277 149 335 180 111 60 133 87 88 106 -19 9 -36 3 -98 -31z"/>
<path d="M3785 2641 c-34 -33 -203 -121 -222 -115 -10 2 -9 0 4 -7 19 -10 34
-6 105 31 119 61 148 80 148 96 0 19 -12 18 -35 -5z"/>
<path d="M3725 2630 c-3 -5 -2 -10 4 -10 5 0 13 5 16 10 3 6 2 10 -4 10 -5 0
-13 -4 -16 -10z"/>
<path d="M4112 2483 c-6 -3 -10 -9 -7 -13 3 -5 -40 -37 -96 -71 -56 -35 -97
-65 -91 -67 12 -4 232 108 232 118 0 15 -26 37 -38 33z"/>
<path d="M4006 2434 c-37 -19 -66 -38 -63 -41 5 -4 133 60 146 73 13 12 -22
-1 -83 -32z"/>
<path d="M4786 2130 c3 -14 3 -22 -1 -17 -5 4 -17 0 -27 -10 -10 -9 -18 -13
-18 -9 0 4 -17 -5 -37 -19 -21 -14 -50 -25 -66 -25 -17 0 -30 -6 -34 -17 -3
-10 -15 -29 -27 -41 l-21 -24 31 14 c80 35 224 114 224 124 0 5 -7 19 -16 30
-14 18 -15 18 -8 -6z"/>
<path d="M4890 2135 c0 -2 18 -14 40 -25 22 -11 40 -18 40 -15 0 2 -18 14 -40
25 -22 11 -40 18 -40 15z"/>
<path d="M4921 1950 c-66 -36 -82 -50 -76 -61 3 -4 -3 -17 -15 -29 -30 -30 -5
-25 91 21 l86 41 -10 29 c-6 16 -14 29 -17 29 -3 0 -29 -14 -59 -30z m19 -28
c0 -5 -7 -9 -15 -9 -8 0 -12 4 -9 9 3 4 9 8 15 8 5 0 9 -4 9 -8z"/>
</g>
</svg>
